<svg xmlns="http://www.w3.org/2000/svg" xmlns:xlink="http://www.w3.org/1999/xlink" viewBox="0 0 425.56 404.32">
	<defs>
		<style>
			.cls-1,.cls-13,.cls-14,.cls-15,.cls-16,.cls-19,.cls-21,.cls-22,.cls-4{fill:none;}.cls-2{clip-path:url(#clip-path);}.cls-3{fill:#8e716c;}.cls-13,.cls-14,.cls-16,.cls-19,.cls-21,.cls-4{stroke:#282828;stroke-linecap:round;stroke-linejoin:round;}.cls-4{stroke-width:1.23px;}.cls-5{fill:#ffb1a5;}.cls-6{fill:#f3978e;}.cls-7{fill:#372f5f;}.cls-8{fill:#261b43;}.cls-9{fill:#e6e6e6;}.cls-10{fill:#fff;}.cls-11{fill:#56dfed;}.cls-12{fill:#282828;}.cls-13{stroke-width:0.99px;}.cls-14{stroke-width:1.23px;}.cls-15{stroke:#c98bd2;stroke-width:1.34px;}.cls-15,.cls-22{stroke-miterlimit:10;}.cls-16{stroke-width:1.23px;}.cls-17{fill:#00857b;}.cls-18{fill:#005683;}.cls-19{stroke-width:1.4px;}.cls-20{fill:#c98bd2;}.cls-21{stroke-width:1.53px;}.cls-22{stroke:#fff;stroke-width:1.95px;}
		</style>
		<clipPath id="clip-path" transform="translate(-3 -4.04)">
			<rect class="cls-1" width="459.27" height="332.68" />
		</clipPath>
	</defs>
	<title>
		about_us
	</title>
	<g id="Layer_2" data-name="Layer 2">
		<g id="OBJECTS">
			<g class="cls-2">
				<path class="cls-3" d="M343,221.17l-36.5-4.86.28,3.62-31.21,4.16s-20.11,50.47-2.39,161.46h25.39L307.7,273h3.24l8.85,112.55h25.39C362.91,274.56,343,221.17,343,221.17Z" transform="translate(-3 -4.04)" />
				<line class="cls-4" x1="293.09" y1="268.97" x2="319.58" y2="268.97" />
				<path class="cls-5" d="M364.3,167.92c-3.12-5-20.66-4.8-21.59-4.91-4.74-.56,3,37.18,12.91,70.16a11.08,11.08,0,0,0,14.93,7.05l.19-.09a11.08,11.08,0,0,0,6.58-12.27C372.63,203,367.92,173.69,364.3,167.92Z" transform="translate(-3 -4.04)" />
				<polygon class="cls-6" points="365.48 177.53 343.09 186.22 340.99 175.6 364.18 169.81 365.48 177.53" />
				<path class="cls-6" d="M372.71,202.83s-10.61,14.25-10.1,13.59,8.32-23,8.32-23Z" transform="translate(-3 -4.04)" />
				<path class="cls-5" d="M387.88,183.68l-30.41,39.4a11.19,11.19,0,0,0,2.77,16.21h0a11.18,11.18,0,0,0,15.92-4l25.31-46.7Z" transform="translate(-3 -4.04)" />
				<path class="cls-5" d="M395.76,193.79a12.54,12.54,0,1,1,15.79-8.08A12.53,12.53,0,0,1,395.76,193.79Z" transform="translate(-3 -4.04)" />
				<path class="cls-5" d="M408.76,174.32s3.43-3.57-2.66-6.07-13.62-1.92-18.42,9.75Z" transform="translate(-3 -4.04)" />
				<path class="cls-7" d="M415.07,149.41l12.73,5.53a1.3,1.3,0,0,1,.58,1.87L411.63,188.1a1.61,1.61,0,0,1-2,.77l-12.74-5.53a1.31,1.31,0,0,1-.57-1.87l16.75-31.29A1.61,1.61,0,0,1,415.07,149.41Z" transform="translate(-3 -4.04)" />
				<path class="cls-8" d="M413.85,148.86l12.74,5.52a1.32,1.32,0,0,1,.57,1.88l-16.75,31.29a1.6,1.6,0,0,1-2,.76l-12.73-5.52a1.32,1.32,0,0,1-.58-1.88l16.75-31.29A1.61,1.61,0,0,1,413.85,148.86Z" transform="translate(-3 -4.04)" />
				<polygon class="cls-9" points="409.41 148.01 420.6 152.86 406.95 178.36 395.76 173.51 409.41 148.01" />
				<polygon class="cls-10" points="420.6 152.86 395.76 173.51 409.41 148.01 420.6 152.86" />
				<path class="cls-5" d="M402.45,167.21a20.47,20.47,0,0,1,5.39,2,2.86,2.86,0,0,1,1.39,3.19h0a2.85,2.85,0,0,1-2.42,2.15l-6.62.84s-3.45,5.95-8,6.62l4.14-10.45Z" transform="translate(-3 -4.04)" />
				<path class="cls-11" d="M317.9,118.3c-.73,0,47,6.6,54.81,61L348,183.05l-5,41H274l-13.7-75.82s15.29-21.92,43.68-30Z" transform="translate(-3 -4.04)" />
				<line class="cls-4" x1="344.97" y1="179.01" x2="347.12" y2="155.28" />
				<path class="cls-5" d="M322.43,119.08V100.2H300.31v19.1a43,43,0,0,0-5.95,2.41L311.62,132l17.64-10.28A29.14,29.14,0,0,0,322.43,119.08Z" transform="translate(-3 -4.04)" />
				<path class="cls-12" d="M300.1,102.51s4,10.55,14.58,9.64c9.75-.84,8.2-15.46,8.2-15.46Z" transform="translate(-3 -4.04)" />
				<path class="cls-6" d="M290.45,88.47c-3.47,3.15-11.22-8.78-7.87-12.13s5.91,1.9,5.91,1.9L290,81.81l1.13,4.82.27,1.26Z" transform="translate(-3 -4.04)" />
				<path class="cls-13" d="M284.2,80.57s2.62-1.19,5,2.62" transform="translate(-3 -4.04)" />
				<path class="cls-6" d="M331.47,88.11c3.19,3.43,11.92-7.8,8.87-11.42s-6,1.4-6,1.4l-1.79,3.42L331,86.22l-.37,1.23Z" transform="translate(-3 -4.04)" />
				<path class="cls-13" d="M338.36,80.76s-2.51-1.4-5.16,2.2" transform="translate(-3 -4.04)" />
				<path class="cls-12" d="M284.37,65c0,15.79,12,23.28,26.9,23.28S338.16,80.75,338.16,65s-12-26.54-26.89-26.54S284.37,49.16,284.37,65Z" transform="translate(-3 -4.04)" />
				<path class="cls-5" d="M288,66.06a107.88,107.88,0,0,0,2.74,24c1.34,5.81,5.11,9.87,10.43,13.14l1,.6a18.31,18.31,0,0,0,18.63.21h0c5.77-3.37,9.81-7.8,11.06-14a157.41,157.41,0,0,0,2.5-23.91s2.15-24.48-22.83-24S288,66.06,288,66.06Z" transform="translate(-3 -4.04)" />
				<path class="cls-14" d="M309.67,80v3.39a1.56,1.56,0,0,0,.11.57,1.52,1.52,0,0,0,1.8.83l1.55-.41" transform="translate(-3 -4.04)" />
				<path class="cls-12" d="M305.7,66.89,293.28,69.8s.57-3.16,5.65-4.31S305.7,66.89,305.7,66.89Z" transform="translate(-3 -4.04)" />
				<path class="cls-12" d="M316.72,66.89l12,2.91s-.54-3.16-5.45-4.31S316.72,66.89,316.72,66.89Z" transform="translate(-3 -4.04)" />
				<ellipse class="cls-12" cx="297.98" cy="71.97" rx="2.09" ry="2.09" />
				<path class="cls-12" d="M322.93,76a2.1,2.1,0,1,1-2.1-2.09A2.1,2.1,0,0,1,322.93,76Z" transform="translate(-3 -4.04)" />
				<path class="cls-10" d="M303.08,88.76h16.15S312.07,97.46,303.08,88.76Z" transform="translate(-3 -4.04)" />
				<circle class="cls-15" cx="300.1" cy="76.82" r="8.9" transform="translate(30.57 230.67) rotate(-45)" />
				<circle class="cls-15" cx="321.98" cy="76.82" r="8.9" transform="translate(36.98 246.14) rotate(-45)" />
				<path class="cls-15" d="M309,76.82s2.11-2,4.06,0" transform="translate(-3 -4.04)" />
				<line class="cls-15" x1="288.19" y1="72.79" x2="285.39" y2="72.71" />
				<line class="cls-15" x1="327.88" y1="72.79" x2="330.7" y2="72.71" />
				<path class="cls-12" d="M334,74.17S324,60.67,326.35,47a19.68,19.68,0,0,1,9.34,13.36C337.62,70,334,74.17,334,74.17Z" transform="translate(-3 -4.04)" />
				<path class="cls-12" d="M288,75.09s11.6-15.34,9.3-29a22.84,22.84,0,0,0-10,14.28C285.4,70,288,75.09,288,75.09Z" transform="translate(-3 -4.04)" />
				<path class="cls-12" d="M333.19,52.37S320.37,66.42,285.27,64c0,0,5.38-20.6,22.38-22.8C307.65,41.21,327.29,38.87,333.19,52.37Z" transform="translate(-3 -4.04)" />
				<circle class="cls-12" cx="332.29" cy="35.96" r="16.76" transform="translate(240.84 354.24) rotate(-80.83)" />
				<path class="cls-12" d="M127.75,221.13,96.54,217l.29-3.62-36.51,4.86S40.4,271.6,58.13,382.59H83.52L92.37,270h3.24l9.14,112.55h25.39C147.87,271.6,127.75,221.13,127.75,221.13Z" transform="translate(-3 -4.04)" />
				<path class="cls-12" d="M125.26,69.28a57.49,57.49,0,0,1-10.48-18.9c-3.09-8.73-13.19-5.18-13.19-5.18S93.17,34.37,80.5,38.14,63.43,50.93,63.17,61.65,54.49,74,48,86.44c-11.46,21.89,7.84,40.33,43,35.21l0-.34a36.79,36.79,0,0,0,12.87,1.2C146.07,120,142,89,125.26,69.28Z" transform="translate(-3 -4.04)" />
				<path class="cls-6" d="M111.45,85.52c3.46,3.14,11.22-8.79,7.87-12.14s-5.91,1.91-5.91,1.91l-1.5,3.56-1.12,4.82-.27,1.26Z" transform="translate(-3 -4.04)" />
				<path class="cls-13" d="M117.7,77.61s-2.63-1.18-5,2.62" transform="translate(-3 -4.04)" />
				<path class="cls-6" d="M70.43,85.15c-3.19,3.43-11.92-7.8-8.87-11.42s6,1.4,6,1.4l1.79,3.42,1.53,4.71.38,1.24Z" transform="translate(-3 -4.04)" />
				<path class="cls-13" d="M63.53,77.8s2.52-1.4,5.16,2.2" transform="translate(-3 -4.04)" />
				<path class="cls-12" d="M117.53,62c0,15.79-12,23.28-26.9,23.28S63.74,77.79,63.74,62s12-26.54,26.89-26.54S117.53,46.2,117.53,62Z" transform="translate(-3 -4.04)" />
				<rect class="cls-5" x="76.46" y="93.21" width="22.13" height="28.65" />
				<path class="cls-12" d="M76.24,95.46S82.39,107.75,90,109.67a10.71,10.71,0,0,0,6.14-.36c2.85-1,6.47-5.26,7.08-10l.29-2.68S90,104,76.24,95.46Z" transform="translate(-3 -4.04)" />
				<path class="cls-5" d="M113.87,63.1a108.55,108.55,0,0,1-2.73,24C109.8,92.91,106,97,100.7,100.25l-1,.59a18.31,18.31,0,0,1-18.63.21h0c-5.77-3.36-9.8-7.8-11-14A158,158,0,0,1,67.54,63.1s-2.15-24.48,22.84-24S113.87,63.1,113.87,63.1Z" transform="translate(-3 -4.04)" />
				<path class="cls-16" d="M89,78.39v2a1.46,1.46,0,0,0,1.91,1.4l1.55-.41" transform="translate(-3 -4.04)" />
				<path class="cls-12" d="M94.17,65.12l13.29,3.15s-.6-3.42-6-4.66S94.17,65.12,94.17,65.12Z" transform="translate(-3 -4.04)" />
				<path class="cls-12" d="M87.19,65.12,73.73,68.27s.61-3.42,6.12-4.66S87.19,65.12,87.19,65.12Z" transform="translate(-3 -4.04)" />
				<path class="cls-12" d="M82.37,73.37a2.1,2.1,0,1,1-2.1-2.08A2.1,2.1,0,0,1,82.37,73.37Z" transform="translate(-3 -4.04)" />
				<path class="cls-12" d="M102.22,73.37a2.1,2.1,0,1,1-2.09-2.08A2.1,2.1,0,0,1,102.22,73.37Z" transform="translate(-3 -4.04)" />
				<path class="cls-10" d="M81,85.28H99.36s-1.29,5-9.63,5A9.75,9.75,0,0,1,81,85.28Z" transform="translate(-3 -4.04)" />
				<path class="cls-12" d="M67.87,71.21s10-13.5,7.68-27.18a19.68,19.68,0,0,0-9.34,13.36C64.27,67,67.87,71.21,67.87,71.21Z" transform="translate(-3 -4.04)" />
				<path class="cls-12" d="M113.89,70.76s-11.6-14-9.3-27.65a22.84,22.84,0,0,1,10,14.28C116.5,67,113.89,70.76,113.89,70.76Z" transform="translate(-3 -4.04)" />
				<path class="cls-12" d="M68.7,49.42s11.47,15.4,46.56,13c0,0-4-22-21-24.17C94.24,38.25,74.61,35.91,68.7,49.42Z" transform="translate(-3 -4.04)" />
				<path class="cls-5" d="M36.71,288.9c-.51.8,29.21-129.31,20.39-127.34-.81.18-16.26,1.61-18.56,6.28-6.65,13.54-11.43,120.07-11.43,120.07Z" transform="translate(-3 -4.04)" />
				<path class="cls-5" d="M27.11,287.91s-4.79,22.22,13.32,24.65a2.54,2.54,0,0,0,2.74-1.68l0-.15a2.55,2.55,0,0,0-1.41-3.14c-3-1.32-7.53-4.66-5.26-12.23,0,0,2.62-.32,4.06,4.56a2.12,2.12,0,0,0,3,1.3h0a2.12,2.12,0,0,0,1.13-2.15c-.43-3.42-2.15-11.65-8.75-13.86Z" transform="translate(-3 -4.04)" />
				<path class="cls-6" d="M33.21,199.1s17.12,24.12,17.21,23.65,6-33.85,6-33.85l-20.78-9Z" transform="translate(-3 -4.04)" />
				<path class="cls-17" d="M80.78,121.18c.73,0-42.32.76-50.18,55.12l24.74,3.79,5,41h69L143,145.31s-9.74-16.43-38.13-24.48Z" transform="translate(-3 -4.04)" />
				<path class="cls-5" d="M59.74,127.75s6.08,8.07,31,8.07c24.7,0,31-8.5,31-8.5s-14.56-8.13-31.45-10.76A112.09,112.09,0,0,0,59.74,127.75Z" transform="translate(-3 -4.04)" />
				<polygon class="cls-18" points="141.44 295.91 141.5 404.32 195.13 404.32 199.25 295.91 141.44 295.91" />
				<polygon class="cls-18" points="257.88 295.91 257.82 404.32 204.19 404.32 200.07 295.91 257.88 295.91" />
				<rect class="cls-18" x="173.14" y="295.91" width="55.45" height="37.66" />
				<line class="cls-19" x1="180.88" y1="333.58" x2="219.13" y2="333.58" />
				<path class="cls-5" d="M294.76,205.35c3.33,36.73-.18,63.5.79,131.09l-32,1.34-4.77-126.52Z" transform="translate(-3 -4.04)" />
				<path class="cls-6" d="M262.72,234s19.82-1.81,33.37-10.75l-.36-7.87-33,4.5Z" transform="translate(-3 -4.04)" />
				<path class="cls-20" d="M230.92,120.77s63,15.84,74.37,95.75c0,0-30.82,13.36-61.7,7.61l6.95-26.73Z" transform="translate(-3 -4.04)" />
				<path class="cls-5" d="M42.86,154l46.88,55.36-14.35,40.4s-35.63-49.54-51.64-87.83Z" transform="translate(-3 -4.04)" />
				<path class="cls-5" d="M44.4,156s-16.46,9.3-20.65,5.93c-7.32-5.87-13.36-27.39-13.36-27.39s30.78-11.61,30.49-11.16S44.4,156,44.4,156Z" transform="translate(-3 -4.04)" />
				<path class="cls-5" d="M44.4,156c-.29-1.66,6.1-19.54,8.3-26.24A3,3,0,0,0,50.35,126h0a3.41,3.41,0,0,0-3.8,1.56l-7.72,13.2Z" transform="translate(-3 -4.04)" />
				<path class="cls-5" d="M43.83,136.67l-5.3-26.37a3.3,3.3,0,0,0-3.83-2.63h0a2.85,2.85,0,0,0-2.35,3.17l2.31,19.64Z" transform="translate(-3 -4.04)" />
				<path class="cls-5" d="M33.29,126.94l-7.2-18.83a3.3,3.3,0,0,0-4.09-2h0a2.85,2.85,0,0,0-1.88,3.38l5.34,21.76Z" transform="translate(-3 -4.04)" />
				<path class="cls-5" d="M25.56,132.5,16.45,114a3.63,3.63,0,0,0-4.62-1.77h0a3.15,3.15,0,0,0-1.63,4.17l7.26,17.47Z" transform="translate(-3 -4.04)" />
				<path class="cls-5" d="M10.39,134.54,3.24,123.2a2.56,2.56,0,0,1,1.25-3.42h0a2.92,2.92,0,0,1,3.57,1l9.4,13Z" transform="translate(-3 -4.04)" />
				<path class="cls-21" d="M42.39,134.69s-10.73-1.13-11.83,13.18" transform="translate(-3 -4.04)" />
				<path class="cls-5" d="M65.88,230.87s8.82,30.51,26.39,26.45,45-41.58,45-41.58l-6.13-64.07L81.78,212.36Z" transform="translate(-3 -4.04)" />
				<path class="cls-6" d="M97.08,193.51s16.64,25.11,30.85,34l9.29-11.73L101.36,188Z" transform="translate(-3 -4.04)" />
				<path class="cls-20" d="M169.92,119.39S121,130.4,95,187.21c0,0,15.74,23.72,41,34.26l16.89-20.7Z" transform="translate(-3 -4.04)" />
				<path class="cls-20" d="M169.92,119.21A122.23,122.23,0,0,0,138.82,142l3.77,166.06H262.91l-.39-165.2s-15.16-14.84-31.6-22.08C217,114.63,183.49,112.25,169.92,119.21Z" transform="translate(-3 -4.04)" />
				<path class="cls-19" d="M207.12,162.62h33.47a0,0,0,0,1,0,0v16.74a16.74,16.74,0,0,1-16.74,16.74h0a16.74,16.74,0,0,1-16.74-16.74V162.62a0,0,0,0,1,0,0Z" />
				<line class="cls-19" x1="259.72" y1="220.71" x2="261.28" y2="166.39" />
				<line class="cls-19" x1="137.67" y1="211.66" x2="135.07" y2="164.57" />
				<path class="cls-12" d="M171.33,58.56l-5-24.82c-.28-2-1.06-5.14-.1-8.07,1.58-4.85,7.42-14.16,17.4-9.9l2.16,9.83s-10.36,2.09-14.52,15.65Z" transform="translate(-3 -4.04)" />
				<path class="cls-12" d="M182.88,20.9c-.18,3.26-3.06,17.52-13.18,22.72C169.7,43.62,160.84,24.61,182.88,20.9Z" transform="translate(-3 -4.04)" />
				<path class="cls-5" d="M218.37,114.64h0V72.5H179.53v42.14L168,119.91s2.72,17.47,31.4,17.85,31.56-17,31.56-17Z" transform="translate(-3 -4.04)" />
				<path class="cls-12" d="M183.61,15.77S190.74-3,212.72,7c13.31,6.05,17,14.16,18.62,19.91a23.12,23.12,0,0,1,.6,6.7l-5.32,25L205.86,24,185.77,25.6Z" transform="translate(-3 -4.04)" />
				<path class="cls-6" d="M226.62,58.56s2.62-4.17,8-2.12,3,15.17-5.15,16.84a6.41,6.41,0,0,1-5.18-1.36S226.3,62.23,226.62,58.56Z" transform="translate(-3 -4.04)" />
				<path class="cls-19" d="M233.57,61.07s-4.53-1.51-7.74,5.15" transform="translate(-3 -4.04)" />
				<path class="cls-6" d="M171.33,58.56s-2.62-4.17-8-2.12-3,15.17,5.14,16.84a6.41,6.41,0,0,0,5.18-1.36S171.64,62.23,171.33,58.56Z" transform="translate(-3 -4.04)" />
				<path class="cls-19" d="M164.38,61.07s4.52-1.51,7.73,5.15" transform="translate(-3 -4.04)" />
				<path class="cls-5" d="M227.16,46.11c0,7.91-.77,24.45-5.64,34.27-4.56,9.22-12.11,14.18-22,14.48s-17.27-3.52-23.18-15.49-5.62-33.11-5.62-33.11S170.71,18,198.63,18C228,18,227.16,46.11,227.16,46.11Z" transform="translate(-3 -4.04)" />
				<path class="cls-12" d="M179.82,85.27s3.25,16.51,17.62,18.4c16.53,2.19,20.93-18,20.93-18s-7.3,9.15-18.86,9.17A25.29,25.29,0,0,1,179.82,85.27Z" transform="translate(-3 -4.04)" />
				<path class="cls-19" d="M196.94,57.84v6.54a2.26,2.26,0,0,0,.15.79,2.12,2.12,0,0,0,2.51,1.17l2.17-.58" transform="translate(-3 -4.04)" />
				<path class="cls-12" d="M188.7,54.72a2.55,2.55,0,1,1-2.55-2.55A2.55,2.55,0,0,1,188.7,54.72Z" transform="translate(-3 -4.04)" />
				<path class="cls-12" d="M212.53,54.72A2.55,2.55,0,1,1,210,52.17,2.55,2.55,0,0,1,212.53,54.72Z" transform="translate(-3 -4.04)" />
				<path class="cls-12" d="M203.48,42.07l17.09,4.42s-.78-4.8-7.77-6.54S203.48,42.07,203.48,42.07Z" transform="translate(-3 -4.04)" />
				<path class="cls-12" d="M192.86,42.07l-17.09,4.42s.78-4.8,7.77-6.54S192.86,42.07,192.86,42.07Z" transform="translate(-3 -4.04)" />
				<path class="cls-19" d="M189.46,71s2.52,1.93,9.15,1.93a23.23,23.23,0,0,0,9.8-1.93" transform="translate(-3 -4.04)" />
				<circle class="cls-22" cx="182.47" cy="51.42" r="10.8" />
				<circle class="cls-22" cx="209" cy="51.42" r="10.8" />
				<path class="cls-22" d="M196.27,55.46s2.56-2.39,4.93,0" transform="translate(-3 -4.04)" />
				<line class="cls-22" x1="171.67" y1="51.42" x2="168.05" y2="51.33" />
				<line class="cls-22" x1="219.8" y1="51.42" x2="223.84" y2="51.36" />
				<path class="cls-12" d="M179.82,21.54S185,36.28,208.41,35.82c15.9-.3,19.7,11.21,19.7,11.21s-2.77-25.73-3.49-25.49-24.2-6.26-24.2-6.26Z" transform="translate(-3 -4.04)" />
			</g>
		</g>
	</g>
</svg>
