<svg xmlns="http://www.w3.org/2000/svg" viewBox="0 0 86.61 88.49">
	<defs>
		<style>
			.cls-analysis{fill:#353535;}
		</style>
	</defs>
	<title>
		analysis
	</title>
	<g id="Layer_2" data-name="Layer 2">
		<g id="_195" data-name="195">
			<path class="cls-analysis" d="M25.1,87a.79.79,0,0,1-.5-.18.77.77,0,0,1-.07-1.07L42.74,64.88a.75.75,0,0,1,1.06-.08.76.76,0,0,1,.08,1.07L25.67,86.73A.76.76,0,0,1,25.1,87Z" />
			<path class="cls-analysis" d="M61.51,87a.76.76,0,0,1-.57-.26L42.74,65.87a.75.75,0,0,1,.07-1.07.76.76,0,0,1,1.07.08l18.2,20.86A.77.77,0,0,1,62,86.81.79.79,0,0,1,61.51,87Z" />
			<path class="cls-analysis" d="M43.31,88.49a.76.76,0,0,1-.76-.75V65.38a.76.76,0,1,1,1.51,0V87.74A.76.76,0,0,1,43.31,88.49Z" />
			<path class="cls-analysis" d="M85.86,10.16H.76A.75.75,0,0,1,0,9.41V.76A.76.76,0,0,1,.76,0h85.1a.76.76,0,0,1,.75.76V9.41A.75.75,0,0,1,85.86,10.16ZM1.51,8.65H85.1V1.51H1.51Z" />
			<path class="cls-analysis" d="M85.86,65.81H.76A.75.75,0,0,1,0,65.06V56.4a.76.76,0,0,1,.76-.76h85.1a.76.76,0,0,1,.75.76v8.66A.75.75,0,0,1,85.86,65.81ZM1.51,64.3H85.1V57.16H1.51Z" />
			<path class="cls-analysis" d="M82.89,57.16H3.72A.76.76,0,0,1,3,56.4v-47a.76.76,0,0,1,.75-.76H82.89a.76.76,0,0,1,.75.76v47A.76.76,0,0,1,82.89,57.16ZM4.48,55.64H82.13V10.16H4.48Z" />
			<path class="cls-analysis" d="M50.46,42.61a.72.72,0,0,1-.54-.23.76.76,0,0,1,0-1.07L60,31.48a.75.75,0,0,1,1.05,1.08L51,42.4A.77.77,0,0,1,50.46,42.61Z" />
			<path class="cls-analysis" d="M46.25,42.71a.77.77,0,0,1-.51-.19l-7.89-7a.77.77,0,0,1-.06-1.07.76.76,0,0,1,1.07-.06l7.89,7a.76.76,0,0,1,.06,1.07A.78.78,0,0,1,46.25,42.71Z" />
			<path class="cls-analysis" d="M25.85,46.25a.78.78,0,0,1-.48-.17.76.76,0,0,1-.1-1.07l8.51-10.26a.77.77,0,0,1,1.07-.1.76.76,0,0,1,.1,1.07L26.44,46A.76.76,0,0,1,25.85,46.25Z" />
			<path class="cls-analysis" d="M24,51.34a3.64,3.64,0,1,1,3.64-3.63A3.64,3.64,0,0,1,24,51.34Zm0-5.76a2.12,2.12,0,1,0,2.13,2.13A2.13,2.13,0,0,0,24,45.58Z" />
			<path class="cls-analysis" d="M36.21,36.65A3.64,3.64,0,1,1,39.84,33,3.64,3.64,0,0,1,36.21,36.65Zm0-5.75A2.12,2.12,0,1,0,38.33,33,2.13,2.13,0,0,0,36.21,30.9Z" />
			<path class="cls-analysis" d="M48.4,47.5A3.64,3.64,0,1,1,52,43.86,3.64,3.64,0,0,1,48.4,47.5Zm0-5.75a2.12,2.12,0,1,0,2.12,2.11A2.13,2.13,0,0,0,48.4,41.75Z" />
			<path class="cls-analysis" d="M62.59,33.65A3.64,3.64,0,1,1,66.23,30,3.65,3.65,0,0,1,62.59,33.65Zm0-5.76A2.13,2.13,0,1,0,64.72,30,2.13,2.13,0,0,0,62.59,27.89Z" />
		</g>
	</g>
</svg>
