<svg xmlns="http://www.w3.org/2000/svg" viewBox="0 0 57.95 88.49">
	<defs>
		<style>
			.cls-deploy{fill:#353535;}
		</style>
	</defs>
	<title>
		deployment
	</title>
	<g id="Layer_2" data-name="Layer 2">
		<g id="_195" data-name="195">
			<path class="cls-deploy" d="M57.19,19.2H.76A.76.76,0,0,1,0,18.44V.76A.76.76,0,0,1,.76,0H57.19A.76.76,0,0,1,58,.76V18.44A.76.76,0,0,1,57.19,19.2ZM1.51,17.68H56.43V1.51H1.51Z" />
			<path class="cls-deploy" d="M57.19,53.84H.76A.76.76,0,0,1,0,53.09V35.41a.76.76,0,0,1,.76-.76H57.19a.76.76,0,0,1,.76.76V53.09A.76.76,0,0,1,57.19,53.84ZM1.51,52.33H56.43V36.16H1.51Z" />
			<path class="cls-deploy" d="M57.19,88.49H.76A.76.76,0,0,1,0,87.74V70.05a.76.76,0,0,1,.76-.75H57.19a.76.76,0,0,1,.76.75V87.74A.76.76,0,0,1,57.19,88.49ZM1.51,87H56.43V70.81H1.51Z" />
			<path class="cls-deploy" d="M13.68,13.54A3.94,3.94,0,1,1,17.62,9.6,3.95,3.95,0,0,1,13.68,13.54Zm0-6.37A2.43,2.43,0,1,0,16.1,9.6,2.43,2.43,0,0,0,13.68,7.17Z" />
			<path class="cls-deploy" d="M29,13.54a3.94,3.94,0,1,1,4-3.94A3.95,3.95,0,0,1,29,13.54Zm0-6.37A2.43,2.43,0,1,0,31.4,9.6,2.43,2.43,0,0,0,29,7.17Z" />
			<path class="cls-deploy" d="M44.27,13.54A3.94,3.94,0,1,1,48.22,9.6,3.95,3.95,0,0,1,44.27,13.54Zm0-6.37A2.43,2.43,0,1,0,46.7,9.6,2.43,2.43,0,0,0,44.27,7.17Z" />
			<path class="cls-deploy" d="M13.68,48.19a3.95,3.95,0,1,1,3.94-3.94A3.95,3.95,0,0,1,13.68,48.19Zm0-6.37a2.43,2.43,0,1,0,2.42,2.43A2.43,2.43,0,0,0,13.68,41.82Z" />
			<path class="cls-deploy" d="M29,48.19a3.95,3.95,0,1,1,4-3.94A3.95,3.95,0,0,1,29,48.19Zm0-6.37a2.43,2.43,0,1,0,2.43,2.43A2.43,2.43,0,0,0,29,41.82Z" />
			<path class="cls-deploy" d="M44.27,48.19a3.95,3.95,0,1,1,3.95-3.94A3.95,3.95,0,0,1,44.27,48.19Zm0-6.37a2.43,2.43,0,1,0,2.43,2.43A2.43,2.43,0,0,0,44.27,41.82Z" />
			<path class="cls-deploy" d="M13.68,82.84a3.95,3.95,0,1,1,3.94-4A4,4,0,0,1,13.68,82.84Zm0-6.37a2.43,2.43,0,1,0,2.42,2.42A2.42,2.42,0,0,0,13.68,76.47Z" />
			<path class="cls-deploy" d="M29,82.84a3.95,3.95,0,1,1,4-4A3.95,3.95,0,0,1,29,82.84Zm0-6.37a2.43,2.43,0,1,0,2.43,2.42A2.42,2.42,0,0,0,29,76.47Z" />
			<path class="cls-deploy" d="M44.27,82.84a3.95,3.95,0,1,1,3.95-4A3.95,3.95,0,0,1,44.27,82.84Zm0-6.37a2.43,2.43,0,1,0,2.43,2.42A2.42,2.42,0,0,0,44.27,76.47Z" />
			<path class="cls-deploy" d="M29,36.16a.75.75,0,0,1-.75-.75v-17a.75.75,0,0,1,.75-.76.76.76,0,0,1,.76.76v17A.76.76,0,0,1,29,36.16Z" />
			<path class="cls-deploy" d="M29,70.81a.75.75,0,0,1-.75-.76v-17a.75.75,0,0,1,.75-.76.76.76,0,0,1,.76.76v17A.76.76,0,0,1,29,70.81Z" />
		</g>
	</g>
</svg>
