<svg xmlns="http://www.w3.org/2000/svg" viewBox="0 0 1669.26 858.95">
	<defs>
		<style>
			.cls-121{fill:#acc7eb;}.cls-2{fill:#c8dbf4;}.cls-3{fill:#bad4f4;}.cls-4{fill:#2e3552;}.cls-5{fill:#ed7d2b;}.cls-6{fill:#f99746;}.cls-7{fill:#fff;}.cls-8{fill:#9abfe2;}.cls-9{fill:#dfebfd;}.cls-1210{fill:#b7d3f3;}.cls-1211{fill:#c0d8fb;}.cls-1212{fill:#d4e4f8;}.cls-1213{fill:#9fc1f4;}.cls-1214{fill:#2a4e96;}.cls-1215{fill:#b5453c;}.cls-1216{fill:#efcbab;}.cls-1217{fill:#f2f7fe;}.cls-1218{fill:#c4d9e8;}.cls-1219{fill:#dfebf5;}
		</style>
	</defs>
	<title>
		desk
	</title>
	<g id="Layer_2" data-name="Layer 2">
		<g id="Слой_1" data-name="Слой 1">
			<path class="cls-121" d="M893.25,854.86h-.51a6.9,6.9,0,0,1-7-7.38L913.49,570.6l24.19,2.16L897.87,851.12A4.49,4.49,0,0,1,893.25,854.86Z" />
			<path class="cls-2" d="M1160.19,854.86h.51a6.88,6.88,0,0,0,7-7.38L1140,570.6l-24.19,2.16,39.81,278.36A4.49,4.49,0,0,0,1160.19,854.86Z" />
			<path class="cls-3" d="M697.66,854.86h-.5a6.9,6.9,0,0,1-7-7.38L717.9,570.6l24.2,2.16L702.29,851.12A4.49,4.49,0,0,1,697.66,854.86Z" />
			<path class="cls-3" d="M1151.94,530.33l49.21-243c6.31-32.91-21-63-56.35-62.18l-94.91,2.16a75,75,0,0,0-70.3,54.12l-72,248.91Z" />
			<path class="cls-121" d="M1122.16,530.33l49.22-243c6.31-32.91-21-63-56.35-62.18l-94.91,2.16a75,75,0,0,0-70.3,54.12l-72,248.91Z" />
			<path class="cls-2" d="M767.7,530.33h384.24a0,0,0,0,1,0,0V556a18.68,18.68,0,0,1-18.68,18.68H767.7A18.68,18.68,0,0,1,749,556v-7a18.68,18.68,0,0,1,18.68-18.68Z" />
			<rect class="cls-121" x="711.61" y="530.33" width="261.46" height="44.32" rx="18.26" />
			<rect class="cls-4" y="851.98" width="1669.26" height="6.97" rx="2.94" />
			<path class="cls-5" d="M575.83,375.86H687a8.86,8.86,0,0,0-8.86-8.86H575.83Z" />
			<polygon class="cls-5" points="576.15 254.78 404.25 254.78 445.48 375.86 618.49 375.86 576.15 254.78" />
			<polygon class="cls-6" points="401.72 254.77 442.95 375.86 615.96 375.86 573.61 254.77 401.72 254.77" />
			<path class="cls-7" d="M494.39,314.2a11.18,11.18,0,0,0,10.32,8.38c4.62,0,7.51-3.75,6.44-8.38a11.18,11.18,0,0,0-10.31-8.38C496.21,305.82,493.33,309.57,494.39,314.2Z" />
			<path class="cls-8" d="M1217.66,574.33v7c0,2.47.8,4.48,1.77,4.48h257.18c1,0,1.77-2,1.77-4.48v-7c0-2.46-.8-4.48-1.77-4.48H1219.43C1218.46,569.85,1217.66,571.87,1217.66,574.33Z" />
			<path class="cls-3" d="M1217.66,574.33v7c0,2.47.73,4.48,1.63,4.48h204.17c.89,0,1.62-2,1.62-4.48v-7c0-2.46-.73-4.48-1.62-4.48H1219.29C1218.39,569.85,1217.66,571.87,1217.66,574.33Z" />
			<rect class="cls-2" x="1282.75" y="585.87" width="182.58" height="266.12" transform="translate(2748.08 1437.85) rotate(180)" />
			<rect class="cls-9" x="1231.58" y="585.87" width="182.58" height="266.12" transform="translate(2645.75 1437.85) rotate(180)" />
			<path class="cls-1210" d="M1241.39,593.38h163V837.29h-163Zm161.2,1.76H1243.15V835.53h159.44Z" />
			<rect class="cls-1210" x="1242.27" y="674.07" width="161.2" height="1.76" />
			<rect class="cls-1210" x="1242.27" y="756.33" width="161.2" height="1.76" />
			<path class="cls-1210" d="M1306.35,609.11h29.92a2.64,2.64,0,0,0,2.64-2.64h0a2.65,2.65,0,0,0-2.64-2.64h-29.92a2.65,2.65,0,0,0-2.64,2.64h0A2.64,2.64,0,0,0,1306.35,609.11Z" />
			<path class="cls-1210" d="M1306.35,689.55h29.92a2.65,2.65,0,0,0,2.64-2.64h0a2.65,2.65,0,0,0-2.64-2.64h-29.92a2.65,2.65,0,0,0-2.64,2.64h0A2.65,2.65,0,0,0,1306.35,689.55Z" />
			<path class="cls-1210" d="M1306.35,773.41h29.92a2.65,2.65,0,0,0,2.64-2.64h0a2.64,2.64,0,0,0-2.64-2.64h-29.92a2.64,2.64,0,0,0-2.64,2.64h0A2.65,2.65,0,0,0,1306.35,773.41Z" />
			<rect class="cls-1211" x="1065.93" width="121.89" height="118.25" rx="14.41" />
			<rect class="cls-9" x="1071.21" y="5.12" width="111.33" height="108.01" rx="13.16" />
			<path class="cls-1210" d="M1124.35,15.92a2.53,2.53,0,1,1,2.52,2.52A2.52,2.52,0,0,1,1124.35,15.92Z" />
			<path class="cls-1210" d="M1144.72,19.48a2.52,2.52,0,1,1,1,3.44A2.54,2.54,0,0,1,1144.72,19.48Z" />
			<path class="cls-1210" d="M1162.17,33.35a2.52,2.52,0,1,1-.75,3.49A2.54,2.54,0,0,1,1162.17,33.35Z" />
			<path class="cls-1210" d="M1170.82,54.81a2.53,2.53,0,1,1-2.52,2.53A2.53,2.53,0,0,1,1170.82,54.81Z" />
			<path class="cls-1210" d="M1166.41,79.72a2.52,2.52,0,1,1-3.57,0A2.53,2.53,0,0,1,1166.41,79.72Z" />
			<path class="cls-1210" d="M1150.55,95.62a2.52,2.52,0,1,1-3.57,0A2.52,2.52,0,0,1,1150.55,95.62Z" />
			<path class="cls-1210" d="M1124.35,103.81a2.53,2.53,0,1,1,2.52,2.53A2.52,2.52,0,0,1,1124.35,103.81Z" />
			<path class="cls-1210" d="M1108.94,19.48a2.52,2.52,0,1,0-1,3.44A2.54,2.54,0,0,0,1108.94,19.48Z" />
			<path class="cls-1210" d="M1091.49,33.35a2.52,2.52,0,1,0,.75,3.49A2.53,2.53,0,0,0,1091.49,33.35Z" />
			<path class="cls-1210" d="M1082.84,54.81a2.53,2.53,0,1,0,2.53,2.53A2.52,2.52,0,0,0,1082.84,54.81Z" />
			<path class="cls-1210" d="M1087.26,79.72a2.52,2.52,0,1,0,3.57,0A2.52,2.52,0,0,0,1087.26,79.72Z" />
			<path class="cls-1210" d="M1103.11,95.62a2.52,2.52,0,1,0,3.57,0A2.53,2.53,0,0,0,1103.11,95.62Z" />
			<path class="cls-1210" d="M1126.19,57.34a2.53,2.53,0,1,1,2.53,2.52A2.53,2.53,0,0,1,1126.19,57.34Z" />
			<rect class="cls-1210" x="1128.37" y="25.8" width="0.69" height="31.54" />
			<rect class="cls-1210" x="1126.13" y="49.7" width="21.26" height="2.07" transform="translate(211.3 712.79) rotate(-38.13)" />
			<path class="cls-2" d="M320.73,665.61s29.92-34.92,1.84-57.09c0,0-20.51-12.42-37.23-11.41,0,0,23.7,39.74,16,43.69s-23.22-46.18-23.22-46.18-46.67-4.53-61.69,2.69c0,0,39.9,32.65,31.5,34.6s-51.5-30.11-51.5-30.11-43.45,7.39-41.13,33.89,17.29,34.69,23.86,34,45.07-15.39,45.91-10-22.33,23-38.55,23.83c0,0,30.63,33.78,51,24s22.09-25.2,34.78-31,23.52-5.78,18.28.13-28.2,11.66-35.45,24.5-13.77,21.49,7.29,18.32,55.29-18.58,56.79-36.23Z" />
			<path class="cls-2" d="M176.68,636.41s118-4.55,144.05,29.2c0,0,5.76,17.26,23.49,33l2.77,7.54s-20.45-21.56-27.77-22.87C319.22,683.25,330.67,641.45,176.68,636.41Z" />
			<path class="cls-2" d="M344.22,698.58s25.33,18.73,27.09,52.2l-4.6.41s-8.09-34.6-22.71-48.14S344.22,698.58,344.22,698.58Z" />
			<path class="cls-2" d="M425.36,621.7S377.75,595,400,558.86c0,0,17.77-22.21,36.81-27.93,0,0-10.15,54,0,55.23s7-60.94,7-60.94S493.91,501.1,513.59,503c0,0-31.11,52.68-21,51.41s45.07-54.59,45.07-54.59,51.41-9.52,59.66,20.95-5.08,45.7-12.69,47.6-56.5,1.27-55.23,7.62,34.28,16.5,52.69,10.79c0,0-20.31,50.14-47,47.61s-34.91-19-51.42-20.32-28.56,3.18-20.31,7.62,36.18,1.46,49.51,12.79,24.12,18.31-.63,23.39-69.19,1.9-78.08-17.14Z" />
			<path class="cls-2" d="M573.88,530.3s-133.29,43.16-148.52,91.4c0,0,.63,21.58-12.7,46.34v9.52s14-32.37,21.58-36.82C434.24,640.74,404.41,598.85,573.88,530.3Z" />
			<path class="cls-2" d="M412.66,668s-20.55,31.21-8.83,69.21l5.29-1.42S404,694,414.74,672.93,412.66,668,412.66,668Z" />
			<path class="cls-1212" d="M349.62,584.94s62.76-35.15,33.47-82.84c0,0-23.43-29.28-48.53-36.81,0,0,13.39,71.12,0,72.79s-9.2-80.32-9.2-80.32-66.1-31.8-92-29.29c0,0,41,69.45,27.61,67.78s-59.4-72-59.4-72-67.77-12.55-78.65,27.61,6.69,60.24,16.73,62.75,74.47,1.68,72.8,10S167.23,546.45,143,538.92c0,0,26.78,66.1,61.92,62.75s46-25.1,67.77-26.78,37.65,4.19,26.77,10.05-47.69,1.91-65.26,16.85-31.79,24.14.84,30.84,91.2,2.51,102.91-22.59Z" />
			<path class="cls-1212" d="M153.84,464.45s175.7,56.9,195.78,120.49c0,0-.83,28.44,16.74,61.07v12.55S348,615.89,337.91,610C337.91,610,377.23,554.81,153.84,464.45Z" />
			<path class="cls-1212" d="M366.36,646s27.09,41.15,11.65,91.24l-7-1.87s6.76-55.17-7.41-82.92S366.36,646,366.36,646Z" />
			<path class="cls-1212" d="M351.74,845.87A122.92,122.92,0,0,1,228.82,723H474.66A122.92,122.92,0,0,1,351.74,845.87Z" />
			<path class="cls-1212" d="M227.12,852.12H476.36A15.17,15.17,0,0,0,461.19,837H242.29a15.17,15.17,0,0,0-15.17,15.16Z" />
			<rect class="cls-1213" x="226.02" y="722.95" width="252.68" height="3.77" transform="translate(704.72 1449.66) rotate(180)" />
			<rect class="cls-1214" x="390.52" y="375.86" width="599.26" height="27.24" rx="11.48" />
			<path class="cls-1214" d="M408.2,851.86l-.32,0a6.94,6.94,0,0,1-6.11-7.7l58.77-454.64,32.94.95-79,456.85A5.66,5.66,0,0,1,408.2,851.86Z" />
			<path class="cls-1214" d="M981.55,851.86l.33,0a6.93,6.93,0,0,0,6.1-7.7L929.21,389.48l-32.93.95,79,456.85A5.65,5.65,0,0,0,981.55,851.86Z" />
			<rect class="cls-1215" x="1341.61" y="457.87" width="6.89" height="81.17" transform="translate(-62.03 219.63) rotate(-9.13)" />
			<polygon class="cls-1216" points="1336.35 444.27 1335.22 458.93 1342.02 457.84 1336.35 444.27" />
			<rect class="cls-1215" x="1401.45" y="464.55" width="6.89" height="81.17" transform="translate(115.93 -248.17) rotate(10.53)" />
			<polygon class="cls-1216" points="1414.91 451.18 1408.92 464.6 1415.69 465.86 1414.91 451.18" />
			<rect class="cls-1215" x="1392.86" y="441.14" width="6.89" height="81.17" transform="translate(111.45 -246.88) rotate(10.52)" />
			<polygon class="cls-1216" points="1406.33 427.78 1400.33 441.2 1407.1 442.45 1406.33 427.78" />
			<rect class="cls-5" x="1360.71" y="491.67" width="54.25" height="78.18" />
			<rect class="cls-6" x="1333.59" y="491.67" width="54.25" height="78.18" />
			<path class="cls-7" d="M1313.89,831.56c-.56,1.18-1.84,7.5-4.09,12.72h0c-1.36,3.14-3.07,5.88-5.2,6.86-5.67,2.64-15.18-1.88-15.18-1.88s-16.32,1.88-17.91,1.13-3.17-25.24-3.17-25.24S1281,812,1282.16,811.59s10.43,4.52,12,4.52,10.87-6.06,13.37-4.54S1314.8,829.68,1313.89,831.56Z" />
			<path class="cls-1217" d="M1294.18,816.11s-2.84,6.41-3.63,7-8.39-11.49-8.39-11.49C1283.3,811.22,1292.59,816.11,1294.18,816.11Z" />
			<path class="cls-1217" d="M1307.36,817.94s-11.6,10.73-11.45,11.74,12.54,8.16,13,7.91-2.65-8.41-2.5-9.8S1307.36,817.94,1307.36,817.94Z" />
			<path class="cls-1217" d="M1313.89,831.56c-.56,1.18-1.84,7.5-4.09,12.72h0l1.38-12-3.62-20.75C1310,813.1,1314.8,829.68,1313.89,831.56Z" />
			<path class="cls-1217" d="M1289.42,849.27s-16.32,1.88-17.91,1.13-3.17-25.24-3.17-25.24,3.55,12.56,3.62,13.18,5.1-.74,5.1-.74Z" />
			<polygon class="cls-1217" points="1272.59 825.16 1274.4 831.65 1278.14 831.65 1275.36 828.92 1272.59 825.16" />
			<path class="cls-7" d="M606.5,831.56c-.56,1.18-1.84,7.5-4.1,12.72h0c-1.36,3.14-3.06,5.88-5.19,6.86-5.67,2.64-15.19-1.88-15.19-1.88s-16.31,1.88-17.9,1.13S561,825.16,561,825.16s12.69-13.19,13.82-13.57,10.43,4.52,12,4.52,10.88-6.06,13.38-4.54S607.41,829.68,606.5,831.56Z" />
			<path class="cls-1217" d="M586.78,816.11s-2.83,6.41-3.62,7-8.39-11.49-8.39-11.49C575.91,811.22,585.2,816.11,586.78,816.11Z" />
			<path class="cls-1217" d="M600,817.94s-11.6,10.73-11.45,11.74,12.54,8.16,13,7.91-2.65-8.41-2.5-9.8S600,817.94,600,817.94Z" />
			<path class="cls-1217" d="M606.5,831.56c-.56,1.18-1.84,7.5-4.1,12.72h0l1.38-12-3.62-20.75C602.65,813.1,607.41,829.68,606.5,831.56Z" />
			<path class="cls-1217" d="M582,849.27s-16.31,1.88-17.9,1.13S561,825.16,561,825.16s3.55,12.56,3.62,13.18,5.1-.74,5.1-.74Z" />
			<polygon class="cls-1217" points="565.2 825.16 567.01 831.65 570.75 831.65 567.97 828.92 565.2 825.16" />
			<path class="cls-7" d="M1364.93,548.76c-.51,1.22-1.44,7.72-3.44,13.15h0c-1.21,3.27-2.79,6.14-4.89,7.27-5.61,3-15.53-1.06-15.53-1.06s-16.46,2.83-18.12,2.15-4.64-25.46-4.64-25.46,12.15-14.1,13.28-14.55,10.84,4,12.45,3.92,10.71-6.77,13.33-5.37S1365.75,546.79,1364.93,548.76Z" />
			<path class="cls-1217" d="M1344,534.18s-2.51,6.66-3.29,7.28-9.16-11.2-9.16-11.2C1332.72,529.81,1342.43,534.27,1344,534.18Z" />
			<path class="cls-1217" d="M1357.53,535.29s-11.17,11.55-11,12.57,13.19,7.58,13.64,7.3-3.16-8.4-3.08-9.81S1357.53,535.29,1357.53,535.29Z" />
			<path class="cls-1217" d="M1364.93,548.76c-.51,1.22-1.44,7.72-3.44,13.15h0l.73-12.23-4.84-20.87C1360,530.23,1365.75,546.79,1364.93,548.76Z" />
			<path class="cls-1217" d="M1341.07,568.12s-16.46,2.83-18.12,2.15-4.64-25.46-4.64-25.46,4.31,12.56,4.43,13.19,5.13-1,5.13-1Z" />
			<polygon class="cls-1217" points="1322.63 544.57 1324.83 551.07 1328.63 550.86 1325.66 548.25 1322.63 544.57" />
			<path class="cls-7" d="M1271.83,554.41c-.39.83-1.12,5.23-2.67,8.92h0c-.94,2.22-2.17,4.18-3.8,5-4.35,2.09-12-.53-12-.53s-12.78,2.1-14.06,1.66-3.59-17.15-3.59-17.15,9.43-9.68,10.31-10,8.4,2.58,9.65,2.5,8.31-4.7,10.34-3.78S1272.47,553.07,1271.83,554.41Z" />
			<path class="cls-1218" d="M1255.63,544.79s-2,4.53-2.55,5-7.1-7.46-7.1-7.46C1246.85,542,1254.38,544.87,1255.63,544.79Z" />
			<path class="cls-1219" d="M1266.1,545.39s-8.67,7.94-8.51,8.62,10.23,5,10.58,4.78-2.45-5.64-2.39-6.6S1266.1,545.39,1266.1,545.39Z" />
			<path class="cls-1218" d="M1271.83,554.41c-.39.83-1.12,5.23-2.67,8.92h0l.57-8.28L1266,541C1268,541.94,1272.47,553.07,1271.83,554.41Z" />
			<path class="cls-1219" d="M1253.32,567.77s-12.78,2.1-14.06,1.66-3.59-17.15-3.59-17.15,3.34,8.43,3.43,8.86,4-.77,4-.77Z" />
			<polygon class="cls-1219" points="1239.02 552.06 1240.73 556.43 1243.67 556.24 1241.37 554.51 1239.02 552.06" />
		</g>
	</g>
</svg>
