<svg xmlns="http://www.w3.org/2000/svg" xmlns:xlink="http://www.w3.org/1999/xlink" viewBox="0 0 404.58 611.62">
	<defs>
		<style>
			.cls-1{isolation:isolate;}.cls-22{mix-blend-mode:screen;fill:url(#linear-gradient);}.cls-3{fill:url(#radial-gradient);}.cls-4{fill:url(#radial-gradient-2);}.cls-5{fill:url(#radial-gradient-3);}.cls-6{fill:url(#radial-gradient-4);}.cls-7{fill:#fff;}
		</style>
		<linearGradient id="linear-gradient" x1="202.29" y1="611.62" x2="202.29" y2="195.39" gradientUnits="userSpaceOnUse">
			<stop offset="0" stop-color="#099" stop-opacity="0.01" />
			<stop offset="0.09" stop-color="#0a9d9d" stop-opacity="0.04" />
			<stop offset="0.23" stop-color="#26a8a8" stop-opacity="0.15" />
			<stop offset="0.43" stop-color="#54bbbb" stop-opacity="0.33" />
			<stop offset="0.66" stop-color="#93d4d4" stop-opacity="0.58" />
			<stop offset="0.91" stop-color="#e3f4f4" stop-opacity="0.89" />
			<stop offset="1" stop-color="#fff" />
		</linearGradient>
		<radialGradient id="radial-gradient" cx="193.87" cy="114.57" r="89.1" gradientUnits="userSpaceOnUse">
			<stop offset="0" stop-color="#494949" />
			<stop offset="0.69" />
			<stop offset="1" stop-color="#383838" />
		</radialGradient>
		<radialGradient id="radial-gradient-2" cx="201.04" cy="161.59" r="5.68" xlink:href="#radial-gradient" />
		<radialGradient id="radial-gradient-3" cx="200.2" cy="166.8" r="10.1" xlink:href="#radial-gradient" />
		<radialGradient id="radial-gradient-4" cx="191.55" cy="188.19" r="43.49" xlink:href="#radial-gradient" />
	</defs>
	<title>
		lamp_1
	</title>
	<g class="cls-1">
		<g id="Layer_2" data-name="Layer 2">
			<g id="Слой_1" data-name="Слой 1">
				<polygon class="cls-22" points="237.27 195.39 167.31 195.39 0 611.62 404.58 611.62 237.27 195.39" />
				<rect class="cls-3" x="201.06" width="1.85" height="162.04" />
				<path class="cls-4" d="M205.87,163.57a3.76,3.76,0,1,1-3.76-3.76A3.75,3.75,0,0,1,205.87,163.57Z" />
				<path class="cls-5" d="M208.8,170.33a6.69,6.69,0,1,1-6.69-6.69A6.68,6.68,0,0,1,208.8,170.33Z" />
				<path class="cls-6" d="M202.11,169.09a40.58,40.58,0,0,0-40.58,40.58H242.7A40.58,40.58,0,0,0,202.11,169.09Z" />
				<ellipse class="cls-7" cx="202.11" cy="209.67" rx="40.58" ry="6.96" />
			</g>
		</g>
	</g>
</svg>
