<svg xmlns="http://www.w3.org/2000/svg" viewBox="0 0 88.55 78.4">
	<defs>
		<style>
			.cls-live{fill:#353535;}
		</style>
	</defs>
	<title>
		live
	</title>
	<g id="Layer_2" data-name="Layer 2">
		<g id="_195" data-name="195">
			<path class="cls-live" d="M41.25,43.74a.76.76,0,0,1-.76-.7L38.73,20a.75.75,0,0,1,.69-.81.77.77,0,0,1,.82.69l1.76,23a.75.75,0,0,1-.69.81Z" />
			<path class="cls-live" d="M47.31,43.74h-.06a.75.75,0,0,1-.7-.81l1.77-23a.76.76,0,0,1,1.51.12L48.06,43A.75.75,0,0,1,47.31,43.74Z" />
			<path class="cls-live" d="M34.18,19a.73.73,0,0,1-.44-.15.75.75,0,0,1-.17-1.05l5-6.93a.75.75,0,0,1,1.06-.17.76.76,0,0,1,.16,1.06l-5.05,6.93A.74.74,0,0,1,34.18,19Z" />
			<path class="cls-live" d="M44.28,19a.77.77,0,0,1-.62-.31l-5-6.93a.76.76,0,0,1,.16-1.06.75.75,0,0,1,1.06.17l5,6.93a.75.75,0,0,1-.17,1.05A.73.73,0,0,1,44.28,19Z" />
			<path class="cls-live" d="M54.37,19a.77.77,0,0,1-.61-.31l-5-6.93a.76.76,0,0,1,.17-1.06.74.74,0,0,1,1,.17l5,6.93a.75.75,0,0,1-.16,1.05A.76.76,0,0,1,54.37,19Z" />
			<path class="cls-live" d="M44.28,19a.76.76,0,0,1-.62-1.2l5.05-6.93a.76.76,0,1,1,1.22.89l-5,6.93A.77.77,0,0,1,44.28,19Z" />
			<path class="cls-live" d="M44.28,54.64A5.62,5.62,0,0,1,38.66,49c0-.16,0-.29,0-.43a.77.77,0,0,1,.76-.7h9.7a.76.76,0,0,1,.75.7c0,.14,0,.28,0,.43A5.63,5.63,0,0,1,44.28,54.64Zm-4.09-5.23a4.1,4.1,0,0,0,8.17,0Z" />
			<path class="cls-live" d="M81.58,69.18H7a.75.75,0,0,1-.75-.75v-50a.73.73,0,0,1,.22-.54A.75.75,0,0,1,7,17.64H7l20.37,0a.75.75,0,0,1,.75.74c.14,4.79,1.71,7.14,3.52,9.85a25.24,25.24,0,0,1,4.9,14.08.74.74,0,0,1,.39.63.76.76,0,0,1-.61.77v1.33h1a.76.76,0,0,1,.14,1.5v1.33H51.12V46.56a.76.76,0,0,1,.14-1.5h1V43.73a.77.77,0,0,1-.62-.77.74.74,0,0,1,.39-.63,25.17,25.17,0,0,1,4.9-14.07c1.81-2.72,3.38-5.06,3.52-9.84a.75.75,0,0,1,.76-.73H81.58a.76.76,0,0,1,.76.76v50A.76.76,0,0,1,81.58,69.18ZM7.73,67.67H80.82V19.22l-18.88,0c-.29,4.74-2,7.25-3.74,9.9-2.08,3.1-4.22,6.3-4.68,13.72a1.45,1.45,0,0,1,.26.82v1.53a1.41,1.41,0,0,1-1.15,1.38V48a1.41,1.41,0,0,1-1.41,1.4H37.33a1.4,1.4,0,0,1-1.4-1.4V46.55a1.4,1.4,0,0,1-1.16-1.38V43.64a1.42,1.42,0,0,1,.26-.81c-.46-7.43-2.6-10.63-4.67-13.74-1.78-2.65-3.46-5.17-3.75-9.92l-18.88,0Z" />
			<path class="cls-live" d="M83.19,78.4H5.37A5.38,5.38,0,0,1,0,73V69.74a2.07,2.07,0,0,1,2.06-2.07H86.49a2.07,2.07,0,0,1,2.06,2.07V73A5.37,5.37,0,0,1,83.19,78.4ZM2.06,69.18a.56.56,0,0,0-.55.56V73a3.86,3.86,0,0,0,3.86,3.86H83.19A3.86,3.86,0,0,0,87,73V69.74a.56.56,0,0,0-.55-.56Z" />
			<path class="cls-live" d="M44.28,76.43a3.4,3.4,0,1,1,3.4-3.4A3.4,3.4,0,0,1,44.28,76.43Zm0-5.28A1.89,1.89,0,1,0,46.16,73,1.89,1.89,0,0,0,44.28,71.15Z" />
			<path class="cls-live" d="M52.75,43.74h-17A.76.76,0,0,1,35,43c-.43-7.57-2.6-10.8-4.69-13.93-1.94-2.92-3.78-5.67-3.78-11.4A17.71,17.71,0,0,1,62,17.7c0,5.73-1.84,8.48-3.79,11.39C56.11,32.22,54,35.46,53.51,43A.75.75,0,0,1,52.75,43.74ZM36.51,42.23H52.05a25.14,25.14,0,0,1,4.89-14c1.9-2.83,3.53-5.28,3.53-10.55a16.2,16.2,0,0,0-32.39,0c0,5.27,1.64,7.72,3.53,10.55A25.24,25.24,0,0,1,36.51,42.23Z" />
			<path class="cls-live" d="M52.38,46.58H36.18a1.41,1.41,0,0,1-1.41-1.41V43.64a1.41,1.41,0,0,1,1.41-1.41h16.2a1.41,1.41,0,0,1,1.4,1.41v1.53A1.41,1.41,0,0,1,52.38,46.58ZM36.29,45.06h16V43.74h-16Z" />
			<path class="cls-live" d="M51.22,49.41H37.33a1.4,1.4,0,0,1-1.4-1.4V46.47a1.41,1.41,0,0,1,1.4-1.41H51.22a1.41,1.41,0,0,1,1.41,1.41V48A1.41,1.41,0,0,1,51.22,49.41ZM37.44,47.89H51.12V46.58H37.44Z" />
			<path class="cls-live" d="M44.28,54.64A5.62,5.62,0,0,1,38.66,49c0-.16,0-.29,0-.43a.77.77,0,0,1,.76-.7h9.7a.76.76,0,0,1,.75.7c0,.14,0,.28,0,.43A5.63,5.63,0,0,1,44.28,54.64Zm-4.09-5.23a4.1,4.1,0,0,0,8.17,0Z" />
		</g>
	</g>
</svg>
