<svg xmlns="http://www.w3.org/2000/svg" viewBox="0 0 88.55 87.67">
	<title>
		planning
	</title>
	<g id="Layer_2" data-name="Layer 2">
		<g id="_195" data-name="195">
			<path d="M65.42,23.05H43.86a.76.76,0,0,1-.75-.75V.76a.74.74,0,0,1,.46-.7.77.77,0,0,1,.83.16L66,21.76a.75.75,0,0,1-.53,1.29Zm-20.8-1.51h19l-19-19Z" />
			<path d="M43.92,79.8a.7.7,0,0,1-.44-.14.75.75,0,0,1-.32-.63l.28-14.18a.74.74,0,0,1,.42-.66.76.76,0,0,1,.78.06l12.89,9.32a.76.76,0,0,1,.3.72.74.74,0,0,1-.49.6L44.18,79.76A.82.82,0,0,1,43.92,79.8Zm1-13.47L44.7,78l10.79-4Z" />
			<path d="M84,37.75a.76.76,0,0,1-.45-.15L70.68,28.28a.73.73,0,0,1-.3-.49.78.78,0,0,1,.14-.57L74.3,22a.74.74,0,0,1,1-.17l12.89,9.32a.77.77,0,0,1,.3.5.71.71,0,0,1-.13.56l-3.78,5.22A.77.77,0,0,1,84,37.75ZM72.19,27.5l11.66,8.44,2.89-4L75.08,23.51Z" />
			<path d="M65.42,87.67H.76A.76.76,0,0,1,0,86.91V.76A.76.76,0,0,1,.76,0h43.1a.77.77,0,0,1,.54.22L66,21.76a.74.74,0,0,1,.23.54V35.56A.81.81,0,0,1,66,36L45,65.12,44.7,78l11.91-4.4,8.2-11.32a.74.74,0,0,1,.84-.28.76.76,0,0,1,.53.72V86.91A.76.76,0,0,1,65.42,87.67ZM1.51,86.15H64.66V65l-7,9.62a.75.75,0,0,1-.35.26L44.18,79.76a.76.76,0,0,1-.7-.1.75.75,0,0,1-.32-.63l.28-14.18a.76.76,0,0,1,.14-.43l21.08-29.1V22.61L43.55,1.51h-42Z" />
			<path d="M43.91,79.8H11a.76.76,0,1,1,0-1.51H43.91a.76.76,0,1,1,0,1.51Z" />
			<path d="M43.92,79.8a.7.7,0,0,1-.44-.14.75.75,0,0,1-.32-.63l.28-14.18a.76.76,0,0,1,.14-.43L74.3,22a.74.74,0,0,1,1-.17l12.89,9.32a.77.77,0,0,1,.3.5.71.71,0,0,1-.13.56L57.69,74.63a.71.71,0,0,1-.35.26L44.18,79.76A.82.82,0,0,1,43.92,79.8Zm1-14.68L44.7,78l11.9-4.4L86.74,31.94,75.08,23.51Z" />
			<path d="M66,62.65a.78.78,0,0,1-.47-.16L53,52.62a.75.75,0,0,1-.14-1l5.75-7.93a.75.75,0,0,1,1.08-.15L72.2,53.37a.74.74,0,0,1,.14,1L66.6,62.34a.72.72,0,0,1-.51.3ZM54.53,51.88l11.3,8.93,4.86-6.71-11.3-8.93Z" />
			<path d="M34.94,58.11H11a.75.75,0,0,1-.76-.75A.76.76,0,0,1,11,56.6h24a.76.76,0,0,1,.76.76A.75.75,0,0,1,34.94,58.11Z" />
			<path d="M43.91,36.43H11a.76.76,0,0,1,0-1.52H43.91a.76.76,0,1,1,0,1.52Z" />
		</g>
	</g>
</svg>
