<svg xmlns="http://www.w3.org/2000/svg" viewBox="0 0 733.21 210.99">
	<defs>
		<style>
			.cls-1{isolation:isolate;}.cls-22{fill:#3c3c3c;}.cls-11,.cls-33{fill:#424242;}.cls-4{fill:#fafafa;}.cls-5{fill:#ede8e4;}.cls-6{fill:#039be5;}.cls-7{fill:#70b773;}.cls-8{fill:#0288d1;}.cls-9{fill:#dbd1c8;}.cls-10{fill:#616161;}.cls-11{opacity:0.2;mix-blend-mode:multiply;}.cls-12{fill:#ef5350;}.cls-13{fill:#e53935;}
		</style>
	</defs>
	<title>
		pointer-phone
	</title>
	<g class="cls-1">
		<g id="Layer_2" data-name="Layer 2">
			<g id="OBJECTS">
				<path class="cls-22" d="M733.18,199.81V178.7H718.74L651.43,89.5c-3.81-5-18.28-9-32.4-9H114.18c-14.12,0-28.59,4-32.4,9L14.46,178.7H0v22.08H0C.5,206.69,9.91,211,24.74,211H708.47C724.1,211,733.71,206.21,733.18,199.81Z" />
				<path class="cls-33" d="M81.78,67.3,1.94,173.09c-6.44,8.54,3.67,15.69,22.8,15.69H708.47c19.13,0,29.24-7.15,22.8-15.69L651.43,67.3c-3.81-5.06-18.28-9-32.4-9H114.18C100.06,58.25,85.59,62.24,81.78,67.3Z" />
				<polygon class="cls-4" points="658.41 182.26 74.8 182.26 146.13 61.88 587.07 61.88 658.41 182.26" />
				<path class="cls-5" d="M221.83,95.54l-8.63,24.2h94.08L311.38,90h-73C236.12,92.78,229.5,95,221.83,95.54Z" />
				<path class="cls-5" d="M315.26,61.88H233.85l-7.23,20.26c7.07.5,12.1,2.61,12.6,5.33h72.51Z" />
				<path class="cls-6" d="M232.39,88.73c.8-2.36-3.67-4.26-9.94-4.26s-12.13,1.9-13.06,4.26,3.51,4.34,9.92,4.34S231.59,91.11,232.39,88.73Z" />
				<path class="cls-7" d="M261,78.14c.43-1.59-2.75-2.87-7.1-2.87s-8.28,1.28-8.78,2.87,2.68,2.91,7.09,2.91S260.59,79.74,261,78.14Z" />
				<polygon class="cls-5" points="204.82 122.69 110.1 122.69 101.44 137.31 199.36 137.31 204.82 122.69" />
				<polygon class="cls-5" points="318.46 87.47 419.77 87.47 416.35 61.88 321.56 61.88 318.46 87.47" />
				<polygon class="cls-7" points="424.49 122.69 212.15 122.69 196.65 166.13 430.29 166.13 424.49 122.69" />
				<polygon class="cls-6" points="551.25 61.88 485.82 61.88 504.37 119.74 579.97 119.74 551.25 61.88" />
				<path class="cls-5" d="M129.48,90l-17.63,29.75h94.08l9-24.2C207.7,95,202.71,92.78,202.46,90Z" />
				<path class="cls-5" d="M227.55,61.88H146.14L131,87.47h72.52c2.48-2.72,9.06-4.83,16.49-5.33Z" />
				<polygon class="cls-5" points="420.11 89.99 318.15 89.99 314.55 119.74 424.09 119.74 420.11 89.99" />
				<polygon class="cls-5" points="195.35 169.75 190.89 182.26 432.45 182.26 430.78 169.75 195.35 169.75" />
				<polygon class="cls-5" points="431.81 122.69 440.78 182.26 516.07 182.26 497.99 122.69 431.81 122.69" />
				<polygon class="cls-5" points="99.54 140.51 74.8 182.26 182.56 182.26 198.17 140.51 99.54 140.51" />
				<polygon class="cls-6" points="505.31 122.69 524.4 182.26 611 182.26 581.44 122.69 505.31 122.69" />
				<polygon class="cls-5" points="619.33 182.26 658.41 182.26 645.26 160.08 607.95 160.08 619.33 182.26" />
				<polygon class="cls-5" points="606.16 156.6 643.2 156.6 623.11 122.69 588.76 122.69 606.16 156.6" />
				<polygon class="cls-5" points="587.24 119.74 621.36 119.74 587.07 61.88 557.55 61.88 587.24 119.74" />
				<polygon class="cls-5" points="487.3 87.47 479.53 61.88 422.64 61.88 426.5 87.47 487.3 87.47" />
				<polygon class="cls-5" points="488.06 89.99 426.88 89.99 431.36 119.74 497.1 119.74 488.06 89.99" />
				<polygon class="cls-8" points="585.49 130.87 507.93 130.87 505.31 122.69 581.44 122.69 585.49 130.87" />
				<path class="cls-7" d="M131.68,103c-1.88,0-3.74.58-4.16,1.31s.76,1.33,2.65,1.33,3.75-.59,4.16-1.33S133.55,103,131.68,103Z" />
				<path class="cls-7" d="M145.79,103c-1.87,0-3.71.58-4.11,1.31s.81,1.33,2.7,1.33,3.73-.59,4.12-1.33S147.67,103,145.79,103Z" />
				<path class="cls-7" d="M159.91,103c-1.87,0-3.69.58-4.06,1.31s.85,1.33,2.74,1.33,3.71-.59,4.07-1.33S161.79,103,159.91,103Z" />
				<path class="cls-7" d="M174,103c-1.88,0-3.68.58-4,1.31s.9,1.33,2.78,1.33,3.69-.59,4-1.33S175.9,103,174,103Z" />
				<path class="cls-7" d="M188.15,103c-1.88,0-3.66.58-4,1.31s1,1.33,2.83,1.33,3.67-.59,4-1.33S190,103,188.15,103Z" />
				<path class="cls-7" d="M202.26,103c-1.87,0-3.63.59-3.93,1.31s1,1.33,2.88,1.33,3.65-.59,3.93-1.33S204.14,103,202.26,103Z" />
				<polygon class="cls-7" points="587.24 119.74 621.36 119.74 605.56 93.07 573.55 93.07 587.24 119.74" />
				<polygon class="cls-9" points="110.2 134.37 115.32 125.48 196.91 125.48 193.45 134.37 110.2 134.37" />
				<polygon class="cls-9" points="371.18 85.14 370.94 63.94 410.72 63.94 413.22 85.14 371.18 85.14" />
				<polygon class="cls-9" points="321.62 117.03 324.22 92.38 353.49 92.38 352.69 117.03 321.62 117.03" />
				<polygon class="cls-9" points="270.09 117.03 275.65 92.38 304.7 92.38 300.91 117.03 270.09 117.03" />
				<polygon class="cls-9" points="447.96 178.7 442.47 145.72 497.78 145.72 507.27 178.7 447.96 178.7" />
				<polygon class="cls-9" points="441.07 137.31 439.47 127.72 492.6 127.72 495.36 137.31 441.07 137.31" />
				<polygon class="cls-9" points="84.62 178.7 104.91 143.53 189.88 143.53 176.18 178.7 84.62 178.7" />
				<polygon class="cls-9" points="625.22 178.7 617.11 163.37 639.74 163.37 648.59 178.7 625.22 178.7" />
				<polygon class="cls-9" points="611.83 153.4 597.07 125.48 617.89 125.48 633.99 153.4 611.83 153.4" />
				<polygon class="cls-9" points="576.25 86.14 564.51 63.94 582.39 63.94 595.19 86.14 576.25 86.14" />
				<polygon class="cls-9" points="432.39 85.14 430.57 74.25 477.22 74.25 480.35 85.14 432.39 85.14" />
				<polygon class="cls-9" points="437.69 117.03 434.56 98.19 484.11 98.19 489.53 117.03 437.69 117.03" />
				<polygon class="cls-9" points="120.2 117.03 200.2 117.03 203.51 108.52 125.11 108.52 120.2 117.03" />
				<polygon class="cls-9" points="190.64 92.38 134.42 92.38 129.89 100.23 187.2 100.23 190.64 92.38" />
				<polygon class="cls-9" points="248.12 92.38 226.64 100.23 224.79 105.66 261.4 105.66 264.76 92.38 248.12 92.38" />
				<polygon class="cls-9" points="180.24 78.86 187.39 63.94 220.88 63.94 215.07 78.86 180.24 78.86" />
				<polygon class="cls-9" points="171.53 63.94 150.82 63.94 138.59 85.14 160.47 85.14 171.53 63.94" />
				<polygon class="cls-9" points="239.02 63.94 236.52 71.26 273.98 71.26 270.6 85.14 305.81 85.14 309.07 63.94 239.02 63.94" />
				<polygon class="cls-9" points="220.91 117.03 223.81 108.52 260.68 108.52 258.53 117.03 220.91 117.03" />
				<path class="cls-10" d="M646.7,105.66c11.16,0,22.77,3.56,26,8s-3.37,8.35-15,8.35-23.36-3.78-26.22-8.35S635.54,105.66,646.7,105.66Z" />
				<path class="cls-10" d="M82.26,101,64.18,127.17c-1.24,1.79,1.29,3.24,5.66,3.24s8.85-1.45,10-3.24L97,101c1-1.57-1.43-2.83-5.47-2.83S83.35,99.45,82.26,101Z" />
				<ellipse class="cls-11" cx="171.53" cy="119.86" rx="30.3" ry="7.99" />
				<path class="cls-12" d="M171.53,0a47.88,47.88,0,0,0-47.88,47.88c0,26.44,47.88,72,47.88,72s47.88-45.54,47.88-72A47.88,47.88,0,0,0,171.53,0Zm0,74.74a26.87,26.87,0,1,1,26.86-26.86A26.86,26.86,0,0,1,171.53,74.74Z" />
				<path class="cls-13" d="M171.53,15.79a32.09,32.09,0,1,0,32.08,32.09A32.09,32.09,0,0,0,171.53,15.79Zm0,53.72a21.63,21.63,0,1,1,21.63-21.63A21.64,21.64,0,0,1,171.53,69.51Z" />
				<path class="cls-11" d="M537.75,178c0,3.16-9.7,5.72-21.68,5.72s-21.68-2.56-21.68-5.72,9.71-5.71,21.68-5.71S537.75,174.8,537.75,178Z" />
				<path class="cls-12" d="M516.07,92.2a34.24,34.24,0,0,0-34.25,34.25c0,18.92,34.25,51.5,34.25,51.5s34.26-32.58,34.26-51.5A34.25,34.25,0,0,0,516.07,92.2Zm0,53.47a19.22,19.22,0,1,1,19.22-19.22A19.22,19.22,0,0,1,516.07,145.67Z" />
				<path class="cls-13" d="M516.07,103.5a23,23,0,1,0,23,23A22.94,22.94,0,0,0,516.07,103.5Zm0,38.43a15.48,15.48,0,1,1,15.48-15.48A15.48,15.48,0,0,1,516.07,141.93Z" />
			</g>
		</g>
	</g>
</svg>
