<svg xmlns="http://www.w3.org/2000/svg" viewBox="0 0 2836.48 190.13">
	<defs>
		<style>
			.cls-1{fill:aqua;}
		</style>
	</defs>
	<title>
		pointer_clouds
	</title>
	<g id="Layer_2" data-name="Layer 2">
		<g id="Layer_1-2" data-name="Layer 1">
			<g id="Layer_2-2" data-name="Layer 2">
				<g id="OBJECTS">
					<path class="cls-1" d="M104.22,81.61a9.29,9.29,0,0,1,9.29,9.29H94.93a9.29,9.29,0,0,1,9.29-9.29Z" />
					<path class="cls-1" d="M130.51,73.9a17,17,0,0,1,17,17h-34a17,17,0,0,1,17-17Z" />
					<path class="cls-1" d="M323.89,167.21a9.27,9.27,0,0,1,9.29,9.27H314.61a9.27,9.27,0,0,1,9.28-9.28Z" />
					<path class="cls-1" d="M350.18,159.49a17,17,0,0,1,17,17h-34A17,17,0,0,1,350.18,159.49Z" />
					<path class="cls-1" d="M414.63,140.35a9.29,9.29,0,0,1,9.29,9.28H405.35A9.3,9.3,0,0,1,414.63,140.35Z" />
					<path class="cls-1" d="M440.92,132.63a17,17,0,0,1,17,17h-34A17,17,0,0,1,440.92,132.63Z" />
					<path class="cls-1" d="M332.64,91.68A23.68,23.68,0,0,0,309,115.36h47.35a23.68,23.68,0,0,0-23.68-23.68Z" />
					<path class="cls-1" d="M223.4,100.69a14.67,14.67,0,0,0-14.67,14.67h29.35a14.67,14.67,0,0,0-14.67-14.67Z" />
					<path class="cls-1" d="M273.52,79.92a35.44,35.44,0,0,0-35.44,35.44H309a35.44,35.44,0,0,0-35.44-35.44Z" />
					<path class="cls-1" d="M48.18,108.85a10.34,10.34,0,0,0-10.33,10.34H58.52a10.34,10.34,0,0,0-10.34-10.34Z" />
					<path class="cls-1" d="M18.92,100.26A18.92,18.92,0,0,0,0,119.18H37.85a18.92,18.92,0,0,0-18.91-18.93Z" />
					<path class="cls-1" d="M113.32,40.66A10.34,10.34,0,0,0,103,51h20.67a10.34,10.34,0,0,0-10.34-10.34Z" />
					<path class="cls-1" d="M84.06,32.07A18.94,18.94,0,0,0,65.13,51H103A18.92,18.92,0,0,0,84.09,32.07Z" />
					<path class="cls-1" d="M354.39,8.59a10.32,10.32,0,0,0-10.33,10.33h20.67A10.34,10.34,0,0,0,354.39,8.59Z" />
					<path class="cls-1" d="M325.13,0a18.92,18.92,0,0,0-18.92,18.92h37.85A18.93,18.93,0,0,0,325.13,0Z" />
					<path class="cls-1" d="M118.83,147.2a8,8,0,0,0-8,8h16A8,8,0,0,0,118.83,147.2Z" />
					<path class="cls-1" d="M96.24,140.57a14.62,14.62,0,0,0-14.6,14.61h29.21a14.61,14.61,0,0,0-14.61-14.61Z" />
					<path class="cls-1" d="M429.15,78.07a10.32,10.32,0,0,0-10.34,10.32h20.67a10.32,10.32,0,0,0-10.33-10.33Z" />
					<path class="cls-1" d="M399.89,69.48A18.92,18.92,0,0,0,381,88.4h37.85a18.92,18.92,0,0,0-18.92-18.92Z" />
					<path class="cls-1" d="M98.26,118.54H96.89v-1.37a.65.65,0,0,0-.65-.65h0a.65.65,0,0,0-.64.65v1.37H94.23a.65.65,0,1,0-.16,1.29.43.43,0,0,0,.16,0H95.6v1.37a.65.65,0,0,0,.64.65h0a.65.65,0,0,0,.65-.65h0v-1.37h1.37a.65.65,0,1,0,.16-1.29A.43.43,0,0,0,98.26,118.54Z" />
					<path class="cls-1" d="M131.49,134.74h-1.37v-1.37a.65.65,0,0,0-.65-.64h0a.65.65,0,0,0-.65.64v1.37h-1.37a.65.65,0,1,0,0,1.3h1.37v1.37a.65.65,0,0,0,.65.65h0a.65.65,0,0,0,.65-.65V136h1.37a.65.65,0,1,0,0-1.3Z" />
					<path class="cls-1" d="M210.75,75.91h-1.37V74.54a.65.65,0,0,0-.65-.64h0a.65.65,0,0,0-.65.64v1.37h-1.37a.65.65,0,0,0,0,1.3h1.37v1.37a.65.65,0,0,0,.65.65h0a.65.65,0,0,0,.65-.65V77.21h1.37a.65.65,0,0,0,0-1.3Z" />
					<path class="cls-1" d="M242.1,82.94h-1.37V81.57a.65.65,0,0,0-.65-.65h0a.65.65,0,0,0-.65.65v1.37h-1.37a.65.65,0,0,0,0,1.3h1.37v1.37a.65.65,0,0,0,.65.65h0a.65.65,0,0,0,.65-.65V84.24h1.37a.65.65,0,0,0,0-1.3Z" />
					<path class="cls-1" d="M342.92,73.25h-1.37V71.88a.65.65,0,0,0-.65-.65h0a.65.65,0,0,0-.65.65v1.37h-1.37a.65.65,0,1,0-.16,1.29h1.53v1.37a.65.65,0,0,0,.65.65h0a.65.65,0,0,0,.65-.65V74.54h1.37a.65.65,0,1,0,.16-1.29A.43.43,0,0,0,342.92,73.25Z" />
					<path class="cls-1" d="M376.1,60.87h-1.37V59.5a.65.65,0,0,0-.65-.65h0a.65.65,0,0,0-.65.65v1.37h-1.37a.65.65,0,0,0,0,1.3h1.37v1.37a.65.65,0,0,0,.65.65h0a.65.65,0,0,0,.65-.65V62.17h1.37a.65.65,0,1,0,0-1.3Z" />
					<path class="cls-1" d="M320.63,34.09h-1.37V32.72a.65.65,0,0,0-.64-.65h0a.65.65,0,0,0-.65.65v1.37H316.6a.65.65,0,1,0-.16,1.29H318v1.37a.65.65,0,0,0,.65.65h0a.65.65,0,0,0,.64-.65V35.38h1.37a.65.65,0,1,0,.16-1.29.43.43,0,0,0-.16,0Z" />
					<path class="cls-1" d="M350.37,48.77H349V47.4a.66.66,0,0,0-.65-.65h0a.66.66,0,0,0-.65.65v1.37h-1.37a.65.65,0,0,0,0,1.3h1.37v1.37a.65.65,0,0,0,.65.65h0a.65.65,0,0,0,.65-.65V50.07h1.37a.65.65,0,1,0,0-1.3Z" />
					<path class="cls-1" d="M416.65,46.11h-1.37V44.74a.65.65,0,0,0-.65-.65h0a.65.65,0,0,0-.64.65v1.37h-1.37a.65.65,0,1,0-.16,1.29H414v1.37a.65.65,0,0,0,.64.65h0a.65.65,0,0,0,.65-.65V47.4h1.37a.65.65,0,1,0,.16-1.29h-.17Z" />
					<path class="cls-1" d="M337.54,140.48h-1.37v-1.37a.65.65,0,0,0-.65-.64h0a.64.64,0,0,0-.64.64h0v1.37h-1.37a.65.65,0,0,0,0,1.3h1.37v1.37a.65.65,0,0,0,.64.65h0a.65.65,0,0,0,.65-.65v-1.37h1.37a.65.65,0,1,0,0-1.3Z" />
					<path class="cls-1" d="M368.62,132.08h-1.37v-1.37a.65.65,0,0,0-.65-.65h0a.65.65,0,0,0-.65.65v1.37h-1.37a.65.65,0,1,0-.16,1.29H366v1.37a.65.65,0,0,0,.65.65h0a.65.65,0,0,0,.65-.65v-1.37h1.37a.65.65,0,0,0,0-1.29Z" />
					<path class="cls-1" d="M299.59,186.82h-1.37v-1.37a.65.65,0,0,0-.65-.65h0a.65.65,0,0,0-.65.65v1.37h-1.37a.65.65,0,1,0-.16,1.29h1.53v1.37a.65.65,0,0,0,.65.65h0a.65.65,0,0,0,.65-.65v-1.37h1.37a.65.65,0,1,0,.16-1.29Z" />
					<path class="cls-1" d="M388.9,166.56h-1.37v-1.37a.65.65,0,0,0-.64-.65h0a.65.65,0,0,0-.65.65v1.37h-1.37a.65.65,0,1,0-.16,1.29.43.43,0,0,0,.16,0h1.37v1.37a.65.65,0,0,0,.65.65h0a.65.65,0,0,0,.64-.65v-1.37h1.37a.65.65,0,1,0,.16-1.29Z" />
					<path class="cls-1" d="M399.24,114.71h-1.37v-1.37a.65.65,0,0,0-.65-.65h0a.65.65,0,0,0-.65.65v1.37H395.2a.65.65,0,0,0,0,1.3h1.37v1.37a.65.65,0,0,0,.65.65h0a.65.65,0,0,0,.65-.65V116h1.37a.65.65,0,0,0,0-1.3Z" />
					<path class="cls-1" d="M80.68,85.61H79.31V84.24a.65.65,0,0,0-.65-.65h0a.65.65,0,0,0-.64.65v1.37H76.65a.65.65,0,1,0,0,1.3H78v1.37a.64.64,0,0,0,.64.64h0a.65.65,0,0,0,.65-.64V86.91h1.37a.65.65,0,1,0,0-1.3Z" />
					<path class="cls-1" d="M128.82,28.75h-1.37V27.38a.65.65,0,0,0-.65-.64h0a.65.65,0,0,0-.65.64v1.37h-1.37a.65.65,0,0,0,0,1.3h1.37v1.37a.65.65,0,0,0,.65.65h0a.65.65,0,0,0,.65-.65h0V30.05h1.37a.65.65,0,1,0,0-1.3Z" />
					<path class="cls-1" d="M38.91,68.83H37.54V67.46a.65.65,0,0,0-.65-.65h0a.65.65,0,0,0-.65.65h0v1.37H34.87a.65.65,0,1,0-.16,1.29h1.53v1.37a.65.65,0,0,0,.65.65h0a.65.65,0,0,0,.65-.65h0V70.12h1.37a.65.65,0,1,0,.16-1.29A.43.43,0,0,0,38.91,68.83Z" />
					<path class="cls-1" d="M62.28,132H60.91v-1.37a.65.65,0,0,0-.64-.65h0a.65.65,0,0,0-.65.65V132H58.25a.65.65,0,1,0,0,1.3h1.37v1.37a.65.65,0,0,0,.65.65h0a.65.65,0,0,0,.64-.65V133.3h1.37a.65.65,0,0,0,0-1.3Z" />
					<path class="cls-1" d="M25.4,144.34H24V143a.65.65,0,0,0-.65-.65h0a.65.65,0,0,0-.65.65v1.37H21.36a.65.65,0,0,0,0,1.3h1.37V147a.65.65,0,0,0,.65.65h0A.65.65,0,0,0,24,147v-1.37h1.4a.65.65,0,1,0,0-1.3Z" />
					<path class="cls-1" d="M120.27,176.36H118.9V175a.65.65,0,0,0-.64-.65h0a.65.65,0,0,0-.65.65v1.37h-1.37a.65.65,0,0,0,0,1.3h1.37V179a.65.65,0,0,0,.65.64h0a.64.64,0,0,0,.64-.64v-1.37h1.37a.65.65,0,0,0,0-1.3Z" />
				</g>
			</g>
			<g id="Layer_2-3" data-name="Layer 2">
				<g id="OBJECTS-2" data-name="OBJECTS">
					<path class="cls-1" d="M574.22,81.61a9.29,9.29,0,0,1,9.29,9.29H564.93a9.29,9.29,0,0,1,9.29-9.29Z" />
					<path class="cls-1" d="M600.51,73.9a17,17,0,0,1,17,17h-34a17,17,0,0,1,17-17Z" />
					<path class="cls-1" d="M793.89,167.21a9.27,9.27,0,0,1,9.29,9.27H784.61a9.27,9.27,0,0,1,9.28-9.28Z" />
					<path class="cls-1" d="M820.18,159.49a17,17,0,0,1,17,17h-34A17,17,0,0,1,820.18,159.49Z" />
					<path class="cls-1" d="M884.63,140.35a9.29,9.29,0,0,1,9.29,9.28H875.35A9.3,9.3,0,0,1,884.63,140.35Z" />
					<path class="cls-1" d="M910.92,132.63a17,17,0,0,1,17,17h-34A17,17,0,0,1,910.92,132.63Z" />
					<path class="cls-1" d="M802.64,91.68A23.68,23.68,0,0,0,779,115.36h47.35a23.68,23.68,0,0,0-23.68-23.68Z" />
					<path class="cls-1" d="M693.4,100.69a14.67,14.67,0,0,0-14.67,14.67h29.35a14.67,14.67,0,0,0-14.67-14.67Z" />
					<path class="cls-1" d="M743.52,79.92a35.44,35.44,0,0,0-35.44,35.44H779a35.44,35.44,0,0,0-35.44-35.44Z" />
					<path class="cls-1" d="M518.18,108.85a10.34,10.34,0,0,0-10.33,10.34h20.67a10.34,10.34,0,0,0-10.34-10.34Z" />
					<path class="cls-1" d="M488.92,100.26A18.92,18.92,0,0,0,470,119.18h37.85a18.92,18.92,0,0,0-18.91-18.93Z" />
					<path class="cls-1" d="M583.32,40.66A10.34,10.34,0,0,0,573,51h20.67a10.34,10.34,0,0,0-10.34-10.34Z" />
					<path class="cls-1" d="M554.06,32.07A18.94,18.94,0,0,0,535.13,51H573a18.92,18.92,0,0,0-18.91-18.93Z" />
					<path class="cls-1" d="M824.39,8.59a10.32,10.32,0,0,0-10.33,10.33h20.67A10.34,10.34,0,0,0,824.39,8.59Z" />
					<path class="cls-1" d="M795.13,0a18.92,18.92,0,0,0-18.92,18.92h37.85A18.93,18.93,0,0,0,795.13,0Z" />
					<path class="cls-1" d="M588.83,147.2a8,8,0,0,0-8,8h16A8,8,0,0,0,588.83,147.2Z" />
					<path class="cls-1" d="M566.24,140.57a14.62,14.62,0,0,0-14.6,14.61h29.21a14.61,14.61,0,0,0-14.61-14.61Z" />
					<path class="cls-1" d="M899.15,78.07a10.32,10.32,0,0,0-10.34,10.32h20.67a10.32,10.32,0,0,0-10.33-10.33Z" />
					<path class="cls-1" d="M869.89,69.48A18.92,18.92,0,0,0,851,88.4h37.85a18.92,18.92,0,0,0-18.92-18.92Z" />
					<path class="cls-1" d="M568.26,118.54h-1.37v-1.37a.65.65,0,0,0-.65-.65h0a.65.65,0,0,0-.64.65v1.37h-1.37a.65.65,0,1,0-.16,1.29.43.43,0,0,0,.16,0h1.37v1.37a.65.65,0,0,0,.64.65h0a.65.65,0,0,0,.65-.65h0v-1.37h1.37a.65.65,0,1,0,.16-1.29A.43.43,0,0,0,568.26,118.54Z" />
					<path class="cls-1" d="M601.49,134.74h-1.37v-1.37a.65.65,0,0,0-.65-.64h0a.65.65,0,0,0-.65.64v1.37h-1.37a.65.65,0,0,0,0,1.3h1.37v1.37a.65.65,0,0,0,.65.65h0a.65.65,0,0,0,.65-.65V136h1.37a.65.65,0,0,0,0-1.3Z" />
					<path class="cls-1" d="M680.75,75.91h-1.37V74.54a.65.65,0,0,0-.65-.64h0a.65.65,0,0,0-.65.64v1.37h-1.37a.65.65,0,0,0,0,1.3h1.37v1.37a.65.65,0,0,0,.65.65h0a.65.65,0,0,0,.65-.65V77.21h1.37a.65.65,0,0,0,0-1.3Z" />
					<path class="cls-1" d="M712.1,82.94h-1.37V81.57a.65.65,0,0,0-.65-.65h0a.65.65,0,0,0-.65.65v1.37h-1.37a.65.65,0,1,0,0,1.3h1.37v1.37a.65.65,0,0,0,.65.65h0a.65.65,0,0,0,.65-.65V84.24h1.37a.65.65,0,0,0,0-1.3Z" />
					<path class="cls-1" d="M812.92,73.25h-1.37V71.88a.65.65,0,0,0-.65-.65h0a.65.65,0,0,0-.65.65v1.37h-1.37a.65.65,0,1,0-.16,1.29h1.53v1.37a.65.65,0,0,0,.65.65h0a.65.65,0,0,0,.65-.65V74.54h1.37a.65.65,0,1,0,.16-1.29A.43.43,0,0,0,812.92,73.25Z" />
					<path class="cls-1" d="M846.1,60.87h-1.37V59.5a.65.65,0,0,0-.65-.65h0a.65.65,0,0,0-.65.65v1.37h-1.37a.65.65,0,1,0,0,1.3h1.37v1.37a.65.65,0,0,0,.65.65h0a.65.65,0,0,0,.65-.65V62.17h1.37a.65.65,0,0,0,0-1.3Z" />
					<path class="cls-1" d="M790.63,34.09h-1.37V32.72a.65.65,0,0,0-.64-.65h0a.65.65,0,0,0-.65.65v1.37H786.6a.65.65,0,1,0-.16,1.29H788v1.37a.65.65,0,0,0,.65.65h0a.65.65,0,0,0,.64-.65V35.38h1.37a.65.65,0,1,0,.16-1.29.43.43,0,0,0-.16,0Z" />
					<path class="cls-1" d="M820.37,48.77H819V47.4a.66.66,0,0,0-.65-.65h0a.66.66,0,0,0-.65.65v1.37h-1.37a.65.65,0,0,0,0,1.3h1.37v1.37a.65.65,0,0,0,.65.65h0a.65.65,0,0,0,.65-.65V50.07h1.37a.65.65,0,0,0,0-1.3Z" />
					<path class="cls-1" d="M886.65,46.11h-1.37V44.74a.65.65,0,0,0-.65-.65h0a.65.65,0,0,0-.64.65v1.37h-1.37a.65.65,0,1,0-.16,1.29H884v1.37a.65.65,0,0,0,.64.65h0a.65.65,0,0,0,.65-.65V47.4h1.37a.65.65,0,1,0,.16-1.29h-.17Z" />
					<path class="cls-1" d="M807.54,140.48h-1.37v-1.37a.65.65,0,0,0-.65-.64h0a.64.64,0,0,0-.64.64h0v1.37h-1.37a.65.65,0,1,0,0,1.3h1.37v1.37a.65.65,0,0,0,.64.65h0a.65.65,0,0,0,.65-.65v-1.37h1.37a.65.65,0,1,0,0-1.3Z" />
					<path class="cls-1" d="M838.62,132.08h-1.37v-1.37a.65.65,0,0,0-.65-.65h0a.65.65,0,0,0-.65.65v1.37h-1.37a.65.65,0,1,0-.16,1.29H836v1.37a.65.65,0,0,0,.65.65h0a.65.65,0,0,0,.65-.65v-1.37h1.37a.65.65,0,0,0,0-1.29Z" />
					<path class="cls-1" d="M769.59,186.82h-1.37v-1.37a.65.65,0,0,0-.65-.65h0a.65.65,0,0,0-.65.65v1.37h-1.37a.65.65,0,1,0-.16,1.29h1.53v1.37a.65.65,0,0,0,.65.65h0a.65.65,0,0,0,.65-.65v-1.37h1.37a.65.65,0,1,0,.16-1.29Z" />
					<path class="cls-1" d="M858.9,166.56h-1.37v-1.37a.65.65,0,0,0-.64-.65h0a.65.65,0,0,0-.65.65v1.37h-1.37a.65.65,0,1,0-.16,1.29.43.43,0,0,0,.16,0h1.37v1.37a.65.65,0,0,0,.65.65h0a.65.65,0,0,0,.64-.65v-1.37h1.37a.65.65,0,1,0,.16-1.29Z" />
					<path class="cls-1" d="M869.24,114.71h-1.37v-1.37a.65.65,0,0,0-.65-.65h0a.65.65,0,0,0-.65.65v1.37H865.2a.65.65,0,0,0,0,1.3h1.37v1.37a.65.65,0,0,0,.65.65h0a.65.65,0,0,0,.65-.65V116h1.37a.65.65,0,0,0,0-1.3Z" />
					<path class="cls-1" d="M550.68,85.61h-1.37V84.24a.65.65,0,0,0-.65-.65h0a.65.65,0,0,0-.64.65v1.37h-1.37a.65.65,0,1,0,0,1.3H548v1.37a.64.64,0,0,0,.64.64h0a.65.65,0,0,0,.65-.64V86.91h1.37a.65.65,0,0,0,0-1.3Z" />
					<path class="cls-1" d="M598.82,28.75h-1.37V27.38a.65.65,0,0,0-.65-.64h0a.65.65,0,0,0-.65.64v1.37h-1.37a.65.65,0,1,0,0,1.3h1.37v1.37a.65.65,0,0,0,.65.65h0a.65.65,0,0,0,.65-.65h0V30.05h1.37a.65.65,0,0,0,0-1.3Z" />
					<path class="cls-1" d="M508.91,68.83h-1.37V67.46a.65.65,0,0,0-.65-.65h0a.65.65,0,0,0-.65.65h0v1.37h-1.37a.65.65,0,1,0-.16,1.29h1.53v1.37a.65.65,0,0,0,.65.65h0a.65.65,0,0,0,.65-.65h0V70.12h1.37a.65.65,0,1,0,.16-1.29A.43.43,0,0,0,508.91,68.83Z" />
					<path class="cls-1" d="M532.28,132h-1.37v-1.37a.65.65,0,0,0-.64-.65h0a.65.65,0,0,0-.65.65V132h-1.37a.65.65,0,1,0,0,1.3h1.37v1.37a.65.65,0,0,0,.65.65h0a.65.65,0,0,0,.64-.65V133.3h1.37a.65.65,0,0,0,0-1.3Z" />
					<path class="cls-1" d="M495.4,144.34H494V143a.65.65,0,0,0-.65-.65h0a.65.65,0,0,0-.65.65v1.37h-1.34a.65.65,0,1,0,0,1.3h1.37V147a.65.65,0,0,0,.65.65h0A.65.65,0,0,0,494,147v-1.37h1.4a.65.65,0,0,0,0-1.3Z" />
					<path class="cls-1" d="M590.27,176.36H588.9V175a.65.65,0,0,0-.64-.65h0a.65.65,0,0,0-.65.65v1.37h-1.37a.65.65,0,0,0,0,1.3h1.37V179a.65.65,0,0,0,.65.64h0a.64.64,0,0,0,.64-.64v-1.37h1.37a.65.65,0,1,0,0-1.3Z" />
				</g>
			</g>
			<g id="Layer_2-4" data-name="Layer 2">
				<g id="OBJECTS-3" data-name="OBJECTS">
					<path class="cls-1" d="M1053.74,81.61A9.29,9.29,0,0,1,1063,90.9h-18.58a9.29,9.29,0,0,1,9.29-9.29Z" />
					<path class="cls-1" d="M1080,73.9a17,17,0,0,1,17,17h-34a17,17,0,0,1,17-17Z" />
					<path class="cls-1" d="M1273.41,167.21a9.27,9.27,0,0,1,9.29,9.27h-18.57a9.27,9.27,0,0,1,9.28-9.28Z" />
					<path class="cls-1" d="M1299.7,159.49a17,17,0,0,1,17,17h-34A17,17,0,0,1,1299.7,159.49Z" />
					<path class="cls-1" d="M1364.15,140.35a9.29,9.29,0,0,1,9.29,9.28h-18.57A9.3,9.3,0,0,1,1364.15,140.35Z" />
					<path class="cls-1" d="M1390.44,132.63a17,17,0,0,1,17,17h-34A17,17,0,0,1,1390.44,132.63Z" />
					<path class="cls-1" d="M1282.16,91.68a23.68,23.68,0,0,0-23.64,23.68h47.35a23.68,23.68,0,0,0-23.68-23.68Z" />
					<path class="cls-1" d="M1172.92,100.69a14.67,14.67,0,0,0-14.67,14.67h29.35a14.67,14.67,0,0,0-14.67-14.67Z" />
					<path class="cls-1" d="M1223,79.92a35.44,35.44,0,0,0-35.44,35.44h70.92a35.44,35.44,0,0,0-35.44-35.44Z" />
					<path class="cls-1" d="M997.7,108.85a10.34,10.34,0,0,0-10.33,10.34H1008a10.34,10.34,0,0,0-10.34-10.34Z" />
					<path class="cls-1" d="M968.44,100.26a18.92,18.92,0,0,0-18.92,18.92h37.85a18.92,18.92,0,0,0-18.91-18.93Z" />
					<path class="cls-1" d="M1062.84,40.66A10.34,10.34,0,0,0,1052.52,51h20.67a10.34,10.34,0,0,0-10.34-10.34Z" />
					<path class="cls-1" d="M1033.58,32.07A18.94,18.94,0,0,0,1014.65,51h37.87a18.92,18.92,0,0,0-18.91-18.93Z" />
					<path class="cls-1" d="M1303.91,8.59a10.32,10.32,0,0,0-10.33,10.33h20.67A10.34,10.34,0,0,0,1303.91,8.59Z" />
					<path class="cls-1" d="M1274.65,0a18.92,18.92,0,0,0-18.92,18.92h37.85A18.93,18.93,0,0,0,1274.65,0Z" />
					<path class="cls-1" d="M1068.35,147.2a8,8,0,0,0-8,8h16A8,8,0,0,0,1068.35,147.2Z" />
					<path class="cls-1" d="M1045.76,140.57a14.62,14.62,0,0,0-14.6,14.61h29.21a14.61,14.61,0,0,0-14.61-14.61Z" />
					<path class="cls-1" d="M1378.67,78.07a10.32,10.32,0,0,0-10.34,10.32H1389a10.32,10.32,0,0,0-10.33-10.33Z" />
					<path class="cls-1" d="M1349.41,69.48a18.92,18.92,0,0,0-18.89,18.92h37.85a18.92,18.92,0,0,0-18.92-18.92Z" />
					<path class="cls-1" d="M1047.78,118.54h-1.37v-1.37a.65.65,0,0,0-.65-.65h0a.65.65,0,0,0-.64.65v1.37h-1.37a.65.65,0,1,0-.16,1.29.43.43,0,0,0,.16,0h1.37v1.37a.65.65,0,0,0,.64.65h0a.65.65,0,0,0,.65-.65h0v-1.37h1.37a.65.65,0,1,0,.16-1.29A.43.43,0,0,0,1047.78,118.54Z" />
					<path class="cls-1" d="M1081,134.74h-1.37v-1.37a.65.65,0,0,0-.65-.64h0a.65.65,0,0,0-.65.64v1.37H1077a.65.65,0,1,0,0,1.3h1.37v1.37a.65.65,0,0,0,.65.65h0a.65.65,0,0,0,.65-.65V136H1081a.65.65,0,0,0,0-1.3Z" />
					<path class="cls-1" d="M1160.27,75.91h-1.37V74.54a.65.65,0,0,0-.65-.64h0a.65.65,0,0,0-.65.64v1.37h-1.37a.65.65,0,1,0,0,1.3h1.37v1.37a.65.65,0,0,0,.65.65h0a.65.65,0,0,0,.65-.65V77.21h1.37a.65.65,0,0,0,0-1.3Z" />
					<path class="cls-1" d="M1191.62,82.94h-1.37V81.57a.65.65,0,0,0-.65-.65h0a.65.65,0,0,0-.65.65v1.37h-1.37a.65.65,0,0,0,0,1.3H1189v1.37a.65.65,0,0,0,.65.65h0a.65.65,0,0,0,.65-.65V84.24h1.37a.65.65,0,0,0,0-1.3Z" />
					<path class="cls-1" d="M1292.44,73.25h-1.37V71.88a.65.65,0,0,0-.65-.65h0a.65.65,0,0,0-.65.65v1.37h-1.37a.65.65,0,1,0-.16,1.29h1.53v1.37a.65.65,0,0,0,.65.65h0a.65.65,0,0,0,.65-.65V74.54h1.37a.65.65,0,1,0,.16-1.29A.43.43,0,0,0,1292.44,73.25Z" />
					<path class="cls-1" d="M1325.62,60.87h-1.37V59.5a.65.65,0,0,0-.65-.65h0a.65.65,0,0,0-.65.65v1.37h-1.37a.65.65,0,0,0,0,1.3H1323v1.37a.65.65,0,0,0,.65.65h0a.65.65,0,0,0,.65-.65V62.17h1.37a.65.65,0,0,0,0-1.3Z" />
					<path class="cls-1" d="M1270.15,34.09h-1.37V32.72a.65.65,0,0,0-.64-.65h0a.65.65,0,0,0-.65.65v1.37h-1.37a.65.65,0,1,0-.16,1.29h1.56v1.37a.65.65,0,0,0,.65.65h0a.65.65,0,0,0,.64-.65V35.38h1.37a.65.65,0,1,0,.16-1.29.43.43,0,0,0-.16,0Z" />
					<path class="cls-1" d="M1299.89,48.77h-1.37V47.4a.66.66,0,0,0-.65-.65h0a.66.66,0,0,0-.65.65v1.37h-1.37a.65.65,0,0,0,0,1.3h1.37v1.37a.65.65,0,0,0,.65.65h0a.65.65,0,0,0,.65-.65V50.07h1.37a.65.65,0,1,0,0-1.3Z" />
					<path class="cls-1" d="M1366.17,46.11h-1.37V44.74a.65.65,0,0,0-.65-.65h0a.65.65,0,0,0-.64.65v1.37h-1.37a.65.65,0,1,0-.16,1.29h1.54v1.37a.65.65,0,0,0,.64.65h0a.65.65,0,0,0,.65-.65V47.4h1.37a.65.65,0,1,0,.16-1.29h-.17Z" />
					<path class="cls-1" d="M1287.06,140.48h-1.37v-1.37a.65.65,0,0,0-.65-.64h0a.64.64,0,0,0-.64.64h0v1.37H1283a.65.65,0,0,0,0,1.3h1.37v1.37a.65.65,0,0,0,.64.65h0a.65.65,0,0,0,.65-.65v-1.37h1.37a.65.65,0,0,0,0-1.3Z" />
					<path class="cls-1" d="M1318.14,132.08h-1.37v-1.37a.65.65,0,0,0-.65-.65h0a.65.65,0,0,0-.65.65v1.37h-1.37a.65.65,0,1,0-.16,1.29h1.58v1.37a.65.65,0,0,0,.65.65h0a.65.65,0,0,0,.65-.65v-1.37h1.37a.65.65,0,0,0,0-1.29Z" />
					<path class="cls-1" d="M1249.11,186.82h-1.37v-1.37a.65.65,0,0,0-.65-.65h0a.65.65,0,0,0-.65.65v1.37h-1.37a.65.65,0,1,0-.16,1.29h1.53v1.37a.65.65,0,0,0,.65.65h0a.65.65,0,0,0,.65-.65v-1.37h1.37a.65.65,0,1,0,.16-1.29Z" />
					<path class="cls-1" d="M1338.42,166.56h-1.37v-1.37a.65.65,0,0,0-.64-.65h0a.65.65,0,0,0-.65.65v1.37h-1.37a.65.65,0,1,0-.16,1.29.43.43,0,0,0,.16,0h1.37v1.37a.65.65,0,0,0,.65.65h0a.65.65,0,0,0,.64-.65v-1.37h1.37a.65.65,0,1,0,.16-1.29Z" />
					<path class="cls-1" d="M1348.76,114.71h-1.37v-1.37a.65.65,0,0,0-.65-.65h0a.65.65,0,0,0-.65.65v1.37h-1.37a.65.65,0,1,0,0,1.3h1.37v1.37a.65.65,0,0,0,.65.65h0a.65.65,0,0,0,.65-.65V116h1.37a.65.65,0,0,0,0-1.3Z" />
					<path class="cls-1" d="M1030.2,85.61h-1.37V84.24a.65.65,0,0,0-.65-.65h0a.65.65,0,0,0-.64.65v1.37h-1.37a.65.65,0,1,0,0,1.3h1.35v1.37a.64.64,0,0,0,.64.64h0a.65.65,0,0,0,.65-.64V86.91h1.37a.65.65,0,1,0,0-1.3Z" />
					<path class="cls-1" d="M1078.34,28.75H1077V27.38a.65.65,0,0,0-.65-.64h0a.65.65,0,0,0-.65.64v1.37h-1.37a.65.65,0,0,0,0,1.3h1.37v1.37a.65.65,0,0,0,.65.65h0a.65.65,0,0,0,.65-.65h0V30.05h1.37a.65.65,0,0,0,0-1.3Z" />
					<path class="cls-1" d="M988.43,68.83h-1.37V67.46a.65.65,0,0,0-.65-.65h0a.65.65,0,0,0-.65.65h0v1.37h-1.37a.65.65,0,1,0-.16,1.29h1.53v1.37a.65.65,0,0,0,.65.65h0a.65.65,0,0,0,.65-.65h0V70.12h1.37a.65.65,0,1,0,.16-1.29A.43.43,0,0,0,988.43,68.83Z" />
					<path class="cls-1" d="M1011.8,132h-1.37v-1.37a.65.65,0,0,0-.64-.65h0a.65.65,0,0,0-.65.65V132h-1.37a.65.65,0,1,0,0,1.3h1.37v1.37a.65.65,0,0,0,.65.65h0a.65.65,0,0,0,.64-.65V133.3h1.37a.65.65,0,0,0,0-1.3Z" />
					<path class="cls-1" d="M974.92,144.34h-1.4V143a.65.65,0,0,0-.65-.65h0a.65.65,0,0,0-.65.65v1.37h-1.34a.65.65,0,1,0,0,1.3h1.37V147a.65.65,0,0,0,.65.65h0a.65.65,0,0,0,.62-.65v-1.37h1.4a.65.65,0,0,0,0-1.3Z" />
					<path class="cls-1" d="M1069.79,176.36h-1.37V175a.65.65,0,0,0-.64-.65h0a.65.65,0,0,0-.65.65v1.37h-1.37a.65.65,0,1,0,0,1.3h1.37V179a.65.65,0,0,0,.65.64h0a.64.64,0,0,0,.64-.64v-1.37h1.37a.65.65,0,0,0,0-1.3Z" />
				</g>
			</g>
			<g id="Layer_2-5" data-name="Layer 2">
				<g id="OBJECTS-4" data-name="OBJECTS">
					<path class="cls-1" d="M1533.26,81.61a9.29,9.29,0,0,1,9.29,9.29H1524a9.29,9.29,0,0,1,9.29-9.29Z" />
					<path class="cls-1" d="M1559.55,73.9a17,17,0,0,1,17,17h-34a17,17,0,0,1,17-17Z" />
					<path class="cls-1" d="M1752.93,167.21a9.27,9.27,0,0,1,9.29,9.27h-18.57a9.27,9.27,0,0,1,9.28-9.28Z" />
					<path class="cls-1" d="M1779.22,159.49a17,17,0,0,1,17,17h-34A17,17,0,0,1,1779.22,159.49Z" />
					<path class="cls-1" d="M1843.67,140.35a9.29,9.29,0,0,1,9.29,9.28h-18.57A9.3,9.3,0,0,1,1843.67,140.35Z" />
					<path class="cls-1" d="M1870,132.63a17,17,0,0,1,17,17h-34A17,17,0,0,1,1870,132.63Z" />
					<path class="cls-1" d="M1761.68,91.68A23.68,23.68,0,0,0,1738,115.36h47.35a23.68,23.68,0,0,0-23.68-23.68Z" />
					<path class="cls-1" d="M1652.44,100.69a14.67,14.67,0,0,0-14.67,14.67h29.35a14.67,14.67,0,0,0-14.67-14.67Z" />
					<path class="cls-1" d="M1702.56,79.92a35.44,35.44,0,0,0-35.44,35.44H1738a35.44,35.44,0,0,0-35.44-35.44Z" />
					<path class="cls-1" d="M1477.22,108.85a10.34,10.34,0,0,0-10.33,10.34h20.67a10.34,10.34,0,0,0-10.34-10.34Z" />
					<path class="cls-1" d="M1448,100.26A18.92,18.92,0,0,0,1429,119.18h37.85A18.92,18.92,0,0,0,1448,100.26Z" />
					<path class="cls-1" d="M1542.36,40.66A10.34,10.34,0,0,0,1532,51h20.67a10.34,10.34,0,0,0-10.34-10.34Z" />
					<path class="cls-1" d="M1513.1,32.07A18.94,18.94,0,0,0,1494.17,51H1532a18.92,18.92,0,0,0-18.91-18.93Z" />
					<path class="cls-1" d="M1783.43,8.59a10.32,10.32,0,0,0-10.33,10.33h20.67A10.34,10.34,0,0,0,1783.43,8.59Z" />
					<path class="cls-1" d="M1754.17,0a18.92,18.92,0,0,0-18.92,18.92h37.85A18.93,18.93,0,0,0,1754.17,0Z" />
					<path class="cls-1" d="M1547.87,147.2a8,8,0,0,0-8,8h16A8,8,0,0,0,1547.87,147.2Z" />
					<path class="cls-1" d="M1525.28,140.57a14.62,14.62,0,0,0-14.6,14.61h29.21a14.61,14.61,0,0,0-14.61-14.61Z" />
					<path class="cls-1" d="M1858.19,78.07a10.32,10.32,0,0,0-10.34,10.32h20.67a10.32,10.32,0,0,0-10.33-10.33Z" />
					<path class="cls-1" d="M1828.93,69.48A18.92,18.92,0,0,0,1810,88.4h37.85A18.92,18.92,0,0,0,1829,69.48Z" />
					<path class="cls-1" d="M1527.3,118.54h-1.37v-1.37a.65.65,0,0,0-.65-.65h0a.65.65,0,0,0-.64.65v1.37h-1.37a.65.65,0,1,0-.16,1.29.43.43,0,0,0,.16,0h1.37v1.37a.65.65,0,0,0,.64.65h0a.65.65,0,0,0,.65-.65h0v-1.37h1.37a.65.65,0,1,0,.16-1.29A.43.43,0,0,0,1527.3,118.54Z" />
					<path class="cls-1" d="M1560.53,134.74h-1.37v-1.37a.65.65,0,0,0-.65-.64h0a.65.65,0,0,0-.65.64v1.37h-1.37a.65.65,0,1,0,0,1.3h1.37v1.37a.65.65,0,0,0,.65.65h0a.65.65,0,0,0,.65-.65V136h1.37a.65.65,0,0,0,0-1.3Z" />
					<path class="cls-1" d="M1639.79,75.91h-1.37V74.54a.65.65,0,0,0-.65-.64h0a.65.65,0,0,0-.65.64v1.37h-1.37a.65.65,0,1,0,0,1.3h1.37v1.37a.65.65,0,0,0,.65.65h0a.65.65,0,0,0,.65-.65V77.21h1.37a.65.65,0,0,0,0-1.3Z" />
					<path class="cls-1" d="M1671.14,82.94h-1.37V81.57a.65.65,0,0,0-.65-.65h0a.65.65,0,0,0-.65.65v1.37h-1.37a.65.65,0,0,0,0,1.3h1.37v1.37a.65.65,0,0,0,.65.65h0a.65.65,0,0,0,.65-.65V84.24h1.37a.65.65,0,1,0,0-1.3Z" />
					<path class="cls-1" d="M1772,73.25h-1.37V71.88a.65.65,0,0,0-.65-.65h0a.65.65,0,0,0-.65.65v1.37h-1.37a.65.65,0,1,0-.16,1.29h1.53v1.37a.65.65,0,0,0,.65.65h0a.65.65,0,0,0,.65-.65V74.54H1772a.65.65,0,1,0,.16-1.29A.43.43,0,0,0,1772,73.25Z" />
					<path class="cls-1" d="M1805.14,60.87h-1.37V59.5a.65.65,0,0,0-.65-.65h0a.65.65,0,0,0-.65.65v1.37h-1.37a.65.65,0,0,0,0,1.3h1.37v1.37a.65.65,0,0,0,.65.65h0a.65.65,0,0,0,.65-.65V62.17h1.37a.65.65,0,1,0,0-1.3Z" />
					<path class="cls-1" d="M1749.67,34.09h-1.37V32.72a.65.65,0,0,0-.64-.65h0a.65.65,0,0,0-.65.65v1.37h-1.37a.65.65,0,1,0-.16,1.29H1747v1.37a.65.65,0,0,0,.65.65h0a.65.65,0,0,0,.64-.65V35.38h1.37a.65.65,0,1,0,.16-1.29.43.43,0,0,0-.16,0Z" />
					<path class="cls-1" d="M1779.41,48.77H1778V47.4a.66.66,0,0,0-.65-.65h0a.66.66,0,0,0-.65.65v1.37h-1.37a.65.65,0,0,0,0,1.3h1.37v1.37a.65.65,0,0,0,.65.65h0a.65.65,0,0,0,.65-.65V50.07h1.37a.65.65,0,1,0,0-1.3Z" />
					<path class="cls-1" d="M1845.69,46.11h-1.37V44.74a.65.65,0,0,0-.65-.65h0a.65.65,0,0,0-.64.65v1.37h-1.37a.65.65,0,1,0-.16,1.29H1843v1.37a.65.65,0,0,0,.64.65h0a.65.65,0,0,0,.65-.65V47.4h1.37a.65.65,0,1,0,.16-1.29h-.17Z" />
					<path class="cls-1" d="M1766.58,140.48h-1.37v-1.37a.65.65,0,0,0-.65-.64h0a.64.64,0,0,0-.64.64h0v1.37h-1.37a.65.65,0,0,0,0,1.3h1.37v1.37a.65.65,0,0,0,.64.65h0a.65.65,0,0,0,.65-.65v-1.37h1.37a.65.65,0,0,0,0-1.3Z" />
					<path class="cls-1" d="M1797.66,132.08h-1.37v-1.37a.65.65,0,0,0-.65-.65h0a.65.65,0,0,0-.65.65v1.37h-1.37a.65.65,0,1,0-.16,1.29H1795v1.37a.65.65,0,0,0,.65.65h0a.65.65,0,0,0,.65-.65v-1.37h1.37a.65.65,0,0,0,0-1.29Z" />
					<path class="cls-1" d="M1728.63,186.82h-1.37v-1.37a.65.65,0,0,0-.65-.65h0a.65.65,0,0,0-.65.65v1.37h-1.37a.65.65,0,1,0-.16,1.29H1726v1.37a.65.65,0,0,0,.65.65h0a.65.65,0,0,0,.65-.65v-1.37h1.37a.65.65,0,1,0,.16-1.29Z" />
					<path class="cls-1" d="M1817.94,166.56h-1.37v-1.37a.65.65,0,0,0-.64-.65h0a.65.65,0,0,0-.65.65v1.37h-1.37a.65.65,0,1,0-.16,1.29.43.43,0,0,0,.16,0h1.37v1.37a.65.65,0,0,0,.65.65h0a.65.65,0,0,0,.64-.65v-1.37h1.37a.65.65,0,1,0,.16-1.29Z" />
					<path class="cls-1" d="M1828.28,114.71h-1.37v-1.37a.65.65,0,0,0-.65-.65h0a.65.65,0,0,0-.65.65v1.37h-1.37a.65.65,0,1,0,0,1.3h1.37v1.37a.65.65,0,0,0,.65.65h0a.65.65,0,0,0,.65-.65V116h1.37a.65.65,0,0,0,0-1.3Z" />
					<path class="cls-1" d="M1509.72,85.61h-1.37V84.24a.65.65,0,0,0-.65-.65h0a.65.65,0,0,0-.64.65v1.37h-1.37a.65.65,0,1,0,0,1.3H1507v1.37a.64.64,0,0,0,.64.64h0a.65.65,0,0,0,.65-.64V86.91h1.37a.65.65,0,1,0,0-1.3Z" />
					<path class="cls-1" d="M1557.86,28.75h-1.37V27.38a.65.65,0,0,0-.65-.64h0a.65.65,0,0,0-.65.64v1.37h-1.37a.65.65,0,0,0,0,1.3h1.37v1.37a.65.65,0,0,0,.65.65h0a.65.65,0,0,0,.65-.65h0V30.05h1.37a.65.65,0,0,0,0-1.3Z" />
					<path class="cls-1" d="M1468,68.83h-1.37V67.46a.65.65,0,0,0-.65-.65h0a.65.65,0,0,0-.65.65h0v1.37h-1.37a.65.65,0,1,0-.16,1.29h1.53v1.37a.65.65,0,0,0,.65.65h0a.65.65,0,0,0,.65-.65h0V70.12H1468a.65.65,0,1,0,.16-1.29A.43.43,0,0,0,1468,68.83Z" />
					<path class="cls-1" d="M1491.32,132H1490v-1.37a.65.65,0,0,0-.64-.65h0a.65.65,0,0,0-.65.65V132h-1.37a.65.65,0,0,0,0,1.3h1.37v1.37a.65.65,0,0,0,.65.65h0a.65.65,0,0,0,.64-.65V133.3h1.37a.65.65,0,0,0,0-1.3Z" />
					<path class="cls-1" d="M1454.44,144.34H1453V143a.65.65,0,0,0-.65-.65h0a.65.65,0,0,0-.65.65v1.37h-1.34a.65.65,0,1,0,0,1.3h1.37V147a.65.65,0,0,0,.65.65h0a.65.65,0,0,0,.62-.65v-1.37h1.4a.65.65,0,1,0,0-1.3Z" />
					<path class="cls-1" d="M1549.31,176.36h-1.37V175a.65.65,0,0,0-.64-.65h0a.65.65,0,0,0-.65.65v1.37h-1.37a.65.65,0,0,0,0,1.3h1.37V179a.65.65,0,0,0,.65.64h0a.64.64,0,0,0,.64-.64v-1.37h1.37a.65.65,0,0,0,0-1.3Z" />
				</g>
			</g>
			<g id="Layer_2-6" data-name="Layer 2">
				<g id="OBJECTS-5" data-name="OBJECTS">
					<path class="cls-1" d="M2003.26,81.61a9.29,9.29,0,0,1,9.29,9.29H1994a9.29,9.29,0,0,1,9.29-9.29Z" />
					<path class="cls-1" d="M2029.55,73.9a17,17,0,0,1,17,17h-34a17,17,0,0,1,17-17Z" />
					<path class="cls-1" d="M2222.93,167.21a9.27,9.27,0,0,1,9.29,9.27h-18.57a9.27,9.27,0,0,1,9.28-9.28Z" />
					<path class="cls-1" d="M2249.22,159.49a17,17,0,0,1,17,17h-34A17,17,0,0,1,2249.22,159.49Z" />
					<path class="cls-1" d="M2313.67,140.35a9.29,9.29,0,0,1,9.29,9.28h-18.57A9.3,9.3,0,0,1,2313.67,140.35Z" />
					<path class="cls-1" d="M2340,132.63a17,17,0,0,1,17,17h-34A17,17,0,0,1,2340,132.63Z" />
					<path class="cls-1" d="M2231.68,91.68A23.68,23.68,0,0,0,2208,115.36h47.35a23.68,23.68,0,0,0-23.68-23.68Z" />
					<path class="cls-1" d="M2122.44,100.69a14.67,14.67,0,0,0-14.67,14.67h29.35a14.67,14.67,0,0,0-14.67-14.67Z" />
					<path class="cls-1" d="M2172.56,79.92a35.44,35.44,0,0,0-35.44,35.44H2208a35.44,35.44,0,0,0-35.44-35.44Z" />
					<path class="cls-1" d="M1947.22,108.85a10.34,10.34,0,0,0-10.33,10.34h20.67a10.34,10.34,0,0,0-10.34-10.34Z" />
					<path class="cls-1" d="M1918,100.26A18.92,18.92,0,0,0,1899,119.18h37.85A18.92,18.92,0,0,0,1918,100.26Z" />
					<path class="cls-1" d="M2012.36,40.66A10.34,10.34,0,0,0,2002,51h20.67a10.34,10.34,0,0,0-10.34-10.34Z" />
					<path class="cls-1" d="M1983.1,32.07A18.94,18.94,0,0,0,1964.17,51H2002a18.92,18.92,0,0,0-18.91-18.93Z" />
					<path class="cls-1" d="M2253.43,8.59a10.32,10.32,0,0,0-10.33,10.33h20.67A10.34,10.34,0,0,0,2253.43,8.59Z" />
					<path class="cls-1" d="M2224.17,0a18.92,18.92,0,0,0-18.92,18.92h37.85A18.93,18.93,0,0,0,2224.17,0Z" />
					<path class="cls-1" d="M2017.87,147.2a8,8,0,0,0-8,8h16A8,8,0,0,0,2017.87,147.2Z" />
					<path class="cls-1" d="M1995.28,140.57a14.62,14.62,0,0,0-14.6,14.61h29.21a14.61,14.61,0,0,0-14.61-14.61Z" />
					<path class="cls-1" d="M2328.19,78.07a10.32,10.32,0,0,0-10.34,10.32h20.67a10.32,10.32,0,0,0-10.33-10.33Z" />
					<path class="cls-1" d="M2298.93,69.48A18.92,18.92,0,0,0,2280,88.4h37.85A18.92,18.92,0,0,0,2299,69.48Z" />
					<path class="cls-1" d="M1997.3,118.54h-1.37v-1.37a.65.65,0,0,0-.65-.65h0a.65.65,0,0,0-.64.65v1.37h-1.37a.65.65,0,1,0-.16,1.29.43.43,0,0,0,.16,0h1.37v1.37a.65.65,0,0,0,.64.65h0a.65.65,0,0,0,.65-.65h0v-1.37h1.37a.65.65,0,1,0,.16-1.29A.43.43,0,0,0,1997.3,118.54Z" />
					<path class="cls-1" d="M2030.53,134.74h-1.37v-1.37a.65.65,0,0,0-.65-.64h0a.65.65,0,0,0-.65.64v1.37h-1.37a.65.65,0,0,0,0,1.3h1.37v1.37a.65.65,0,0,0,.65.65h0a.65.65,0,0,0,.65-.65V136h1.37a.65.65,0,1,0,0-1.3Z" />
					<path class="cls-1" d="M2109.79,75.91h-1.37V74.54a.65.65,0,0,0-.65-.64h0a.65.65,0,0,0-.65.64v1.37h-1.37a.65.65,0,0,0,0,1.3h1.37v1.37a.65.65,0,0,0,.65.65h0a.65.65,0,0,0,.65-.65V77.21h1.37a.65.65,0,1,0,0-1.3Z" />
					<path class="cls-1" d="M2141.14,82.94h-1.37V81.57a.65.65,0,0,0-.65-.65h0a.65.65,0,0,0-.65.65v1.37h-1.37a.65.65,0,0,0,0,1.3h1.37v1.37a.65.65,0,0,0,.65.65h0a.65.65,0,0,0,.65-.65V84.24h1.37a.65.65,0,1,0,0-1.3Z" />
					<path class="cls-1" d="M2242,73.25h-1.37V71.88a.65.65,0,0,0-.65-.65h0a.65.65,0,0,0-.65.65v1.37h-1.37a.65.65,0,1,0-.16,1.29h1.53v1.37a.65.65,0,0,0,.65.65h0a.65.65,0,0,0,.65-.65V74.54H2242a.65.65,0,1,0,.16-1.29A.43.43,0,0,0,2242,73.25Z" />
					<path class="cls-1" d="M2275.14,60.87h-1.37V59.5a.65.65,0,0,0-.65-.65h0a.65.65,0,0,0-.65.65v1.37h-1.37a.65.65,0,0,0,0,1.3h1.37v1.37a.65.65,0,0,0,.65.65h0a.65.65,0,0,0,.65-.65V62.17h1.37a.65.65,0,1,0,0-1.3Z" />
					<path class="cls-1" d="M2219.67,34.09h-1.37V32.72a.65.65,0,0,0-.64-.65h0a.65.65,0,0,0-.65.65v1.37h-1.37a.65.65,0,1,0-.16,1.29H2217v1.37a.65.65,0,0,0,.65.65h0a.65.65,0,0,0,.64-.65V35.38h1.37a.65.65,0,1,0,.16-1.29.43.43,0,0,0-.16,0Z" />
					<path class="cls-1" d="M2249.41,48.77H2248V47.4a.66.66,0,0,0-.65-.65h0a.66.66,0,0,0-.65.65v1.37h-1.37a.65.65,0,0,0,0,1.3h1.37v1.37a.65.65,0,0,0,.65.65h0a.65.65,0,0,0,.65-.65V50.07h1.37a.65.65,0,1,0,0-1.3Z" />
					<path class="cls-1" d="M2315.69,46.11h-1.37V44.74a.65.65,0,0,0-.65-.65h0a.65.65,0,0,0-.64.65v1.37h-1.37a.65.65,0,1,0-.16,1.29H2313v1.37a.65.65,0,0,0,.64.65h0a.65.65,0,0,0,.65-.65V47.4h1.37a.65.65,0,1,0,.16-1.29h-.17Z" />
					<path class="cls-1" d="M2236.58,140.48h-1.37v-1.37a.65.65,0,0,0-.65-.64h0a.64.64,0,0,0-.64.64h0v1.37h-1.37a.65.65,0,0,0,0,1.3h1.37v1.37a.65.65,0,0,0,.64.65h0a.65.65,0,0,0,.65-.65v-1.37h1.37a.65.65,0,1,0,0-1.3Z" />
					<path class="cls-1" d="M2267.66,132.08h-1.37v-1.37a.65.65,0,0,0-.65-.65h0a.65.65,0,0,0-.65.65v1.37h-1.37a.65.65,0,1,0-.16,1.29H2265v1.37a.65.65,0,0,0,.65.65h0a.65.65,0,0,0,.65-.65v-1.37h1.37a.65.65,0,0,0,0-1.29Z" />
					<path class="cls-1" d="M2198.63,186.82h-1.37v-1.37a.65.65,0,0,0-.65-.65h0a.65.65,0,0,0-.65.65v1.37h-1.37a.65.65,0,1,0-.16,1.29H2196v1.37a.65.65,0,0,0,.65.65h0a.65.65,0,0,0,.65-.65v-1.37h1.37a.65.65,0,1,0,.16-1.29Z" />
					<path class="cls-1" d="M2287.94,166.56h-1.37v-1.37a.65.65,0,0,0-.64-.65h0a.65.65,0,0,0-.65.65v1.37h-1.37a.65.65,0,1,0-.16,1.29.43.43,0,0,0,.16,0h1.37v1.37a.65.65,0,0,0,.65.65h0a.65.65,0,0,0,.64-.65v-1.37h1.37a.65.65,0,1,0,.16-1.29Z" />
					<path class="cls-1" d="M2298.28,114.71h-1.37v-1.37a.65.65,0,0,0-.65-.65h0a.65.65,0,0,0-.65.65v1.37h-1.37a.65.65,0,1,0,0,1.3h1.37v1.37a.65.65,0,0,0,.65.65h0a.65.65,0,0,0,.65-.65V116h1.37a.65.65,0,0,0,0-1.3Z" />
					<path class="cls-1" d="M1979.72,85.61h-1.37V84.24a.65.65,0,0,0-.65-.65h0a.65.65,0,0,0-.64.65v1.37h-1.37a.65.65,0,0,0,0,1.3H1977v1.37a.64.64,0,0,0,.64.64h0a.65.65,0,0,0,.65-.64V86.91h1.37a.65.65,0,0,0,0-1.3Z" />
					<path class="cls-1" d="M2027.86,28.75h-1.37V27.38a.65.65,0,0,0-.65-.64h0a.65.65,0,0,0-.65.64v1.37h-1.37a.65.65,0,1,0,0,1.3h1.37v1.37a.65.65,0,0,0,.65.65h0a.65.65,0,0,0,.65-.65h0V30.05h1.37a.65.65,0,1,0,0-1.3Z" />
					<path class="cls-1" d="M1938,68.83h-1.37V67.46a.65.65,0,0,0-.65-.65h0a.65.65,0,0,0-.65.65h0v1.37h-1.37a.65.65,0,1,0-.16,1.29h1.53v1.37a.65.65,0,0,0,.65.65h0a.65.65,0,0,0,.65-.65h0V70.12H1938a.65.65,0,1,0,.16-1.29A.43.43,0,0,0,1938,68.83Z" />
					<path class="cls-1" d="M1961.32,132H1960v-1.37a.65.65,0,0,0-.64-.65h0a.65.65,0,0,0-.65.65V132h-1.37a.65.65,0,1,0,0,1.3h1.37v1.37a.65.65,0,0,0,.65.65h0a.65.65,0,0,0,.64-.65V133.3h1.37a.65.65,0,1,0,0-1.3Z" />
					<path class="cls-1" d="M1924.44,144.34H1923V143a.65.65,0,0,0-.65-.65h0a.65.65,0,0,0-.65.65v1.37h-1.34a.65.65,0,0,0,0,1.3h1.37V147a.65.65,0,0,0,.65.65h0a.65.65,0,0,0,.62-.65v-1.37h1.4a.65.65,0,0,0,0-1.3Z" />
					<path class="cls-1" d="M2019.31,176.36h-1.37V175a.65.65,0,0,0-.64-.65h0a.65.65,0,0,0-.65.65v1.37h-1.37a.65.65,0,1,0,0,1.3h1.37V179a.65.65,0,0,0,.65.64h0a.64.64,0,0,0,.64-.64v-1.37h1.37a.65.65,0,1,0,0-1.3Z" />
				</g>
			</g>
			<g id="Layer_2-7" data-name="Layer 2">
				<g id="OBJECTS-6" data-name="OBJECTS">
					<path class="cls-1" d="M2482.78,81.61a9.29,9.29,0,0,1,9.29,9.29h-18.58a9.29,9.29,0,0,1,9.29-9.29Z" />
					<path class="cls-1" d="M2509.07,73.9a17,17,0,0,1,17,17h-34a17,17,0,0,1,17-17Z" />
					<path class="cls-1" d="M2702.45,167.21a9.27,9.27,0,0,1,9.29,9.27h-18.57a9.27,9.27,0,0,1,9.28-9.28Z" />
					<path class="cls-1" d="M2728.74,159.49a17,17,0,0,1,17,17h-34A17,17,0,0,1,2728.74,159.49Z" />
					<path class="cls-1" d="M2793.19,140.35a9.29,9.29,0,0,1,9.29,9.28h-18.57A9.3,9.3,0,0,1,2793.19,140.35Z" />
					<path class="cls-1" d="M2819.48,132.63a17,17,0,0,1,17,17h-34A17,17,0,0,1,2819.48,132.63Z" />
					<path class="cls-1" d="M2711.2,91.68a23.68,23.68,0,0,0-23.64,23.68h47.35a23.68,23.68,0,0,0-23.68-23.68Z" />
					<path class="cls-1" d="M2602,100.69a14.67,14.67,0,0,0-14.67,14.67h29.35A14.67,14.67,0,0,0,2602,100.69Z" />
					<path class="cls-1" d="M2652.08,79.92a35.44,35.44,0,0,0-35.44,35.44h70.92a35.44,35.44,0,0,0-35.44-35.44Z" />
					<path class="cls-1" d="M2426.74,108.85a10.34,10.34,0,0,0-10.33,10.34h20.67a10.34,10.34,0,0,0-10.34-10.34Z" />
					<path class="cls-1" d="M2397.48,100.26a18.92,18.92,0,0,0-18.92,18.92h37.85a18.92,18.92,0,0,0-18.91-18.93Z" />
					<path class="cls-1" d="M2491.88,40.66A10.34,10.34,0,0,0,2481.56,51h20.67a10.34,10.34,0,0,0-10.34-10.34Z" />
					<path class="cls-1" d="M2462.62,32.07A18.94,18.94,0,0,0,2443.69,51h37.87a18.92,18.92,0,0,0-18.91-18.93Z" />
					<path class="cls-1" d="M2733,8.59a10.32,10.32,0,0,0-10.33,10.33h20.67A10.34,10.34,0,0,0,2733,8.59Z" />
					<path class="cls-1" d="M2703.69,0a18.92,18.92,0,0,0-18.92,18.92h37.85A18.93,18.93,0,0,0,2703.69,0Z" />
					<path class="cls-1" d="M2497.39,147.2a8,8,0,0,0-8,8h16A8,8,0,0,0,2497.39,147.2Z" />
					<path class="cls-1" d="M2474.8,140.57a14.62,14.62,0,0,0-14.6,14.61h29.21a14.61,14.61,0,0,0-14.61-14.61Z" />
					<path class="cls-1" d="M2807.71,78.07a10.32,10.32,0,0,0-10.34,10.32H2818a10.32,10.32,0,0,0-10.33-10.33Z" />
					<path class="cls-1" d="M2778.45,69.48a18.92,18.92,0,0,0-18.89,18.92h37.85a18.92,18.92,0,0,0-18.92-18.92Z" />
					<path class="cls-1" d="M2476.82,118.54h-1.37v-1.37a.65.65,0,0,0-.65-.65h0a.65.65,0,0,0-.64.65v1.37h-1.37a.65.65,0,1,0-.16,1.29.43.43,0,0,0,.16,0h1.37v1.37a.65.65,0,0,0,.64.65h0a.65.65,0,0,0,.65-.65h0v-1.37h1.37a.65.65,0,1,0,.16-1.29A.43.43,0,0,0,2476.82,118.54Z" />
					<path class="cls-1" d="M2510.05,134.74h-1.37v-1.37a.65.65,0,0,0-.65-.64h0a.65.65,0,0,0-.65.64v1.37H2506a.65.65,0,0,0,0,1.3h1.37v1.37a.65.65,0,0,0,.65.65h0a.65.65,0,0,0,.65-.65V136h1.37a.65.65,0,0,0,0-1.3Z" />
					<path class="cls-1" d="M2589.31,75.91h-1.37V74.54a.65.65,0,0,0-.65-.64h0a.65.65,0,0,0-.65.64v1.37h-1.37a.65.65,0,0,0,0,1.3h1.37v1.37a.65.65,0,0,0,.65.65h0a.65.65,0,0,0,.65-.65V77.21h1.37a.65.65,0,1,0,0-1.3Z" />
					<path class="cls-1" d="M2620.66,82.94h-1.37V81.57a.65.65,0,0,0-.65-.65h0a.65.65,0,0,0-.65.65v1.37h-1.37a.65.65,0,0,0,0,1.3H2618v1.37a.65.65,0,0,0,.65.65h0a.65.65,0,0,0,.65-.65V84.24h1.37a.65.65,0,1,0,0-1.3Z" />
					<path class="cls-1" d="M2721.48,73.25h-1.37V71.88a.65.65,0,0,0-.65-.65h0a.65.65,0,0,0-.65.65v1.37h-1.37a.65.65,0,1,0-.16,1.29h1.53v1.37a.65.65,0,0,0,.65.65h0a.65.65,0,0,0,.65-.65V74.54h1.37a.65.65,0,1,0,.16-1.29A.43.43,0,0,0,2721.48,73.25Z" />
					<path class="cls-1" d="M2754.66,60.87h-1.37V59.5a.65.65,0,0,0-.65-.65h0a.65.65,0,0,0-.65.65v1.37h-1.37a.65.65,0,0,0,0,1.3H2752v1.37a.65.65,0,0,0,.65.65h0a.65.65,0,0,0,.65-.65V62.17h1.37a.65.65,0,1,0,0-1.3Z" />
					<path class="cls-1" d="M2699.19,34.09h-1.37V32.72a.65.65,0,0,0-.64-.65h0a.65.65,0,0,0-.65.65v1.37h-1.37a.65.65,0,1,0-.16,1.29h1.56v1.37a.65.65,0,0,0,.65.65h0a.65.65,0,0,0,.64-.65V35.38h1.37a.65.65,0,1,0,.16-1.29.43.43,0,0,0-.16,0Z" />
					<path class="cls-1" d="M2728.93,48.77h-1.37V47.4a.66.66,0,0,0-.65-.65h0a.66.66,0,0,0-.65.65v1.37h-1.37a.65.65,0,0,0,0,1.3h1.37v1.37a.65.65,0,0,0,.65.65h0a.65.65,0,0,0,.65-.65V50.07h1.37a.65.65,0,1,0,0-1.3Z" />
					<path class="cls-1" d="M2795.21,46.11h-1.37V44.74a.65.65,0,0,0-.65-.65h0a.65.65,0,0,0-.64.65v1.37h-1.37a.65.65,0,1,0-.16,1.29h1.54v1.37a.65.65,0,0,0,.64.65h0a.65.65,0,0,0,.65-.65V47.4h1.37a.65.65,0,1,0,.16-1.29h-.17Z" />
					<path class="cls-1" d="M2716.1,140.48h-1.37v-1.37a.65.65,0,0,0-.65-.64h0a.64.64,0,0,0-.64.64h0v1.37h-1.37a.65.65,0,0,0,0,1.3h1.37v1.37a.65.65,0,0,0,.64.65h0a.65.65,0,0,0,.65-.65v-1.37h1.37a.65.65,0,1,0,0-1.3Z" />
					<path class="cls-1" d="M2747.18,132.08h-1.37v-1.37a.65.65,0,0,0-.65-.65h0a.65.65,0,0,0-.65.65v1.37h-1.37a.65.65,0,1,0-.16,1.29h1.58v1.37a.65.65,0,0,0,.65.65h0a.65.65,0,0,0,.65-.65v-1.37h1.37a.65.65,0,0,0,0-1.29Z" />
					<path class="cls-1" d="M2678.15,186.82h-1.37v-1.37a.65.65,0,0,0-.65-.65h0a.65.65,0,0,0-.65.65v1.37h-1.37a.65.65,0,1,0-.16,1.29h1.53v1.37a.65.65,0,0,0,.65.65h0a.65.65,0,0,0,.65-.65v-1.37h1.37a.65.65,0,1,0,.16-1.29Z" />
					<path class="cls-1" d="M2767.46,166.56h-1.37v-1.37a.65.65,0,0,0-.64-.65h0a.65.65,0,0,0-.65.65v1.37h-1.37a.65.65,0,1,0-.16,1.29.43.43,0,0,0,.16,0h1.37v1.37a.65.65,0,0,0,.65.65h0a.65.65,0,0,0,.64-.65v-1.37h1.37a.65.65,0,1,0,.16-1.29Z" />
					<path class="cls-1" d="M2777.8,114.71h-1.37v-1.37a.65.65,0,0,0-.65-.65h0a.65.65,0,0,0-.65.65v1.37h-1.37a.65.65,0,0,0,0,1.3h1.37v1.37a.65.65,0,0,0,.65.65h0a.65.65,0,0,0,.65-.65V116h1.37a.65.65,0,0,0,0-1.3Z" />
					<path class="cls-1" d="M2459.24,85.61h-1.37V84.24a.65.65,0,0,0-.65-.65h0a.65.65,0,0,0-.64.65v1.37h-1.37a.65.65,0,0,0,0,1.3h1.35v1.37a.64.64,0,0,0,.64.64h0a.65.65,0,0,0,.65-.64V86.91h1.37a.65.65,0,1,0,0-1.3Z" />
					<path class="cls-1" d="M2507.38,28.75H2506V27.38a.65.65,0,0,0-.65-.64h0a.65.65,0,0,0-.65.64v1.37h-1.37a.65.65,0,0,0,0,1.3h1.37v1.37a.65.65,0,0,0,.65.65h0a.65.65,0,0,0,.65-.65h0V30.05h1.37a.65.65,0,1,0,0-1.3Z" />
					<path class="cls-1" d="M2417.47,68.83h-1.37V67.46a.65.65,0,0,0-.65-.65h0a.65.65,0,0,0-.65.65h0v1.37h-1.37a.65.65,0,1,0-.16,1.29h1.53v1.37a.65.65,0,0,0,.65.65h0a.65.65,0,0,0,.65-.65h0V70.12h1.37a.65.65,0,1,0,.16-1.29A.43.43,0,0,0,2417.47,68.83Z" />
					<path class="cls-1" d="M2440.84,132h-1.37v-1.37a.65.65,0,0,0-.64-.65h0a.65.65,0,0,0-.65.65V132h-1.37a.65.65,0,0,0,0,1.3h1.37v1.37a.65.65,0,0,0,.65.65h0a.65.65,0,0,0,.64-.65V133.3h1.37a.65.65,0,0,0,0-1.3Z" />
					<path class="cls-1" d="M2404,144.34h-1.4V143a.65.65,0,0,0-.65-.65h0a.65.65,0,0,0-.65.65v1.37h-1.34a.65.65,0,0,0,0,1.3h1.37V147a.65.65,0,0,0,.65.65h0a.65.65,0,0,0,.62-.65v-1.37h1.4a.65.65,0,1,0,0-1.3Z" />
					<path class="cls-1" d="M2498.83,176.36h-1.37V175a.65.65,0,0,0-.64-.65h0a.65.65,0,0,0-.65.65v1.37h-1.37a.65.65,0,0,0,0,1.3h1.37V179a.65.65,0,0,0,.65.64h0a.64.64,0,0,0,.64-.64v-1.37h1.37a.65.65,0,1,0,0-1.3Z" />
				</g>
			</g>
		</g>
	</g>
</svg>
